<svg width="333" height="215" viewBox="0 0 333 215" fill="none" xmlns="http://www.w3.org/2000/svg">
    <g clip-path="url(#clip0_126_108)">
        <path d="M296.602 205.241L302.069 205.385C303.598 202.954 304.511 200.187 304.729 197.323C301.226 201.037 295.046 200.104 290.521 202.47C289.116 203.219 287.897 204.274 286.955 205.558C286.012 206.842 285.371 208.322 285.079 209.887L282.824 213.044C285.316 213.675 287.916 213.759 290.443 213.29C292.971 212.82 295.367 211.808 297.466 210.323C298.635 209.479 299.693 208.49 300.615 207.381C298.587 206.443 296.602 205.241 296.602 205.241Z" fill="#F2F2F2"/>
        <path d="M293.59 196.917L298.547 194.608C298.832 191.75 298.415 188.865 297.333 186.205C295.854 191.092 289.907 193.013 286.912 197.148C285.988 198.445 285.368 199.934 285.097 201.503C284.826 203.072 284.912 204.683 285.348 206.214L284.739 210.045C287.251 209.499 289.615 208.415 291.668 206.867C293.721 205.319 295.413 203.345 296.63 201.08C297.3 199.803 297.806 198.446 298.137 197.042C295.903 197.107 293.59 196.917 293.59 196.917Z" fill="#F2F2F2"/>
        <path d="M285.453 210.206H282.1L280.505 197.271H285.454L285.453 210.206Z" fill="#A0616A"/>
        <path d="M285.364 209.11L281.786 207.656L281.681 207.613L279.705 209.11C278.621 209.11 277.578 209.528 276.795 210.278C276.012 211.028 275.549 212.051 275.502 213.134C275.496 213.194 275.496 213.256 275.496 213.318V213.456H286.309V209.11L285.364 209.11Z" fill="#2F2E41"/>
        <path d="M279.067 203.516L276.177 205.217L268.243 194.879L272.508 192.369L279.067 203.516Z" fill="#A0616A"/>
        <path d="M281.063 205.221L280.671 204.552L279.25 202.138L278.511 202.574L278.435 202.617L274.614 203.18L274.5 203.196L273.558 205.489C273.082 205.769 272.665 206.14 272.332 206.581C271.999 207.023 271.757 207.525 271.618 208.06C271.479 208.595 271.447 209.152 271.524 209.7C271.6 210.247 271.784 210.774 272.064 211.251L272.135 211.367L281.453 205.884L281.063 205.221Z" fill="#2F2E41"/>
        <path d="M289.7 131.134C291.273 135.875 291.106 141.022 289.322 146.546L288.857 165.536L287.361 177.515C288.263 179.862 288.726 182.355 288.726 184.869C288.72 191.46 288.277 200.823 286.03 205.222H280.713L279.513 185.634L278.08 175.786L277.904 165.232L277.75 156.028L271.969 164.482L266.351 172.697L271.935 182.116L276.806 197.272L271.664 201.602L265.83 190.543L263.003 187.258L255.285 170.551L255.979 168.224C257.407 163.434 259.482 158.86 262.145 154.63L269.822 136.813L289.7 131.134Z" fill="#2F2E41"/>
        <path d="M201.142 134.677H95.6307C94.7888 134.676 93.9816 134.341 93.3862 133.746C92.7909 133.15 92.456 132.343 92.4551 131.501V50.8482C92.456 50.0063 92.7909 49.1991 93.3863 48.6038C93.9816 48.0085 94.7888 47.6737 95.6307 47.6727H201.142C201.984 47.6737 202.791 48.0085 203.386 48.6038C203.982 49.1991 204.316 50.0063 204.317 50.8482V131.501C204.316 132.343 203.982 133.15 203.386 133.746C202.791 134.341 201.984 134.676 201.142 134.677Z" fill="white"/>
        <path d="M201.142 135.07H95.6308C94.6845 135.069 93.7773 134.693 93.1082 134.024C92.439 133.355 92.0626 132.447 92.0615 131.501V50.8482C92.0626 49.9019 92.439 48.9947 93.1082 48.3256C93.7773 47.6565 94.6845 47.2801 95.6308 47.2791H201.142C202.088 47.2801 202.995 47.6565 203.664 48.3256C204.334 48.9947 204.71 49.9019 204.711 50.8482V131.501C204.71 132.447 204.334 133.355 203.664 134.024C202.995 134.693 202.088 135.069 201.142 135.07ZM95.6308 48.0664C94.8933 48.0672 94.1862 48.3606 93.6647 48.8821C93.1431 49.4036 92.8498 50.1106 92.8489 50.8482V131.501C92.8497 132.239 93.1431 132.946 93.6646 133.467C94.1861 133.989 94.8933 134.282 95.6308 134.283H201.142C201.879 134.282 202.586 133.989 203.108 133.467C203.629 132.946 203.923 132.239 203.924 131.501V50.8482C203.923 50.1106 203.629 49.4036 203.108 48.8821C202.586 48.3606 201.879 48.0672 201.142 48.0664H95.6308Z" fill="#F0F0F0"/>
        <path d="M92.6988 119.323V131.501C92.6999 132.278 93.0092 133.023 93.5588 133.573C94.1084 134.123 94.8534 134.432 95.6306 134.433H201.142C201.919 134.432 202.664 134.123 203.214 133.573C203.763 133.023 204.073 132.278 204.074 131.501V119.323H92.6988Z" fill="#F0F0F0"/>
        <path d="M93.6931 48.1865L93.2686 48.8495L203.861 119.654L204.286 118.992L93.6931 48.1865Z" fill="#F0F0F0"/>
        <path d="M274.736 14.3901H25.8014C25.6969 14.3878 25.5974 14.3447 25.5244 14.27C25.4513 14.1952 25.4103 14.0949 25.4103 13.9904C25.4103 13.8858 25.4513 13.7855 25.5244 13.7108C25.5974 13.6361 25.6969 13.5929 25.8014 13.5906H274.736C274.841 13.5929 274.94 13.6361 275.014 13.7108C275.087 13.7855 275.128 13.8858 275.128 13.9904C275.128 14.0949 275.087 14.1952 275.014 14.27C274.94 14.3447 274.841 14.3878 274.736 14.3901Z" fill="#CACACA"/>
        <path d="M34.6022 8.79395C36.9777 8.79395 38.9033 6.82535 38.9033 4.39697C38.9033 1.96859 36.9777 0 34.6022 0C32.2268 0 30.3011 1.96859 30.3011 4.39697C30.3011 6.82535 32.2268 8.79395 34.6022 8.79395Z" fill="#3F3D56"/>
        <path d="M49.4606 8.79395C51.8361 8.79395 53.7617 6.82535 53.7617 4.39697C53.7617 1.96859 51.8361 0 49.4606 0C47.0852 0 45.1595 1.96859 45.1595 4.39697C45.1595 6.82535 47.0852 8.79395 49.4606 8.79395Z" fill="#3F3D56"/>
        <path d="M64.319 8.79395C66.6945 8.79395 68.6201 6.82535 68.6201 4.39697C68.6201 1.96859 66.6945 0 64.319 0C61.9436 0 60.0179 1.96859 60.0179 4.39697C60.0179 6.82535 61.9436 8.79395 64.319 8.79395Z" fill="#3F3D56"/>
        <path d="M265.833 1.08984H255.278C255.069 1.094 254.869 1.18002 254.723 1.32944C254.576 1.47887 254.494 1.67977 254.494 1.88902C254.494 2.09827 254.576 2.29917 254.723 2.4486C254.869 2.59802 255.069 2.68404 255.278 2.6882H265.833C266.042 2.68404 266.241 2.59802 266.387 2.4486C266.534 2.29917 266.616 2.09827 266.616 1.88902C266.616 1.67977 266.534 1.47887 266.387 1.32944C266.241 1.18002 266.042 1.094 265.833 1.08984Z" fill="#3F3D56"/>
        <path d="M265.833 4.08969H255.278C255.069 4.09384 254.869 4.17987 254.723 4.32929C254.576 4.47871 254.494 4.67962 254.494 4.88887C254.494 5.09812 254.576 5.29902 254.723 5.44844C254.869 5.59787 255.069 5.68389 255.278 5.68804H265.833C266.042 5.68389 266.241 5.59787 266.387 5.44844C266.534 5.29902 266.616 5.09812 266.616 4.88887C266.616 4.67962 266.534 4.47871 266.387 4.32929C266.241 4.17987 266.042 4.09384 265.833 4.08969Z" fill="#3F3D56"/>
        <path d="M265.833 7.08563H255.278C255.069 7.08979 254.869 7.17581 254.723 7.32523C254.576 7.47466 254.494 7.67556 254.494 7.88481C254.494 8.09406 254.576 8.29496 254.723 8.44439C254.869 8.59381 255.069 8.67983 255.278 8.68399H265.833C266.042 8.67983 266.241 8.59381 266.387 8.44439C266.534 8.29496 266.616 8.09406 266.616 7.88481C266.616 7.67556 266.534 7.47466 266.387 7.32523C266.241 7.17581 266.042 7.08979 265.833 7.08563Z" fill="#3F3D56"/>
        <path d="M236.904 108.376C237.135 108.679 237.429 108.928 237.766 109.105C238.103 109.282 238.475 109.384 238.856 109.401C239.236 109.419 239.616 109.354 239.968 109.209C240.32 109.064 240.637 108.844 240.895 108.564L249.385 112.256L248.558 107.517L240.622 104.737C240.123 104.335 239.493 104.13 238.853 104.161C238.212 104.192 237.605 104.457 237.147 104.905C236.689 105.354 236.411 105.955 236.366 106.594C236.322 107.234 236.513 107.868 236.904 108.376Z" fill="#A0616A"/>
        <path d="M244.629 105.698L260.848 107.8L277.573 97.7249C278.468 97.1861 279.466 96.8428 280.503 96.7177C281.54 96.5927 282.591 96.6885 283.588 96.9991C284.585 97.3097 285.505 97.8278 286.287 98.5195C287.069 99.2112 287.696 100.061 288.127 101.012C288.903 102.734 288.991 104.688 288.374 106.473C287.757 108.258 286.481 109.74 284.807 110.615L262.332 118.624L262.289 118.639L242.57 109.856L244.629 105.698Z" fill="#3F3D56"/>
        <path d="M268.314 134.001L269.662 130.63L268.771 127.733L271.412 98.8515L271.803 94.4744L271.829 91.2116L280.862 90.9912L281.842 93.4791L283.78 94.6381C285.894 95.9057 287.637 97.7076 288.833 99.8625C290.029 102.017 290.636 104.449 290.594 106.913L290.244 125.858L291.145 127.661C291.39 128.15 291.526 128.687 291.544 129.234C291.562 129.782 291.461 130.326 291.249 130.831C291.036 131.335 290.717 131.788 290.314 132.157C289.91 132.527 289.431 132.805 288.909 132.972L269.05 139.007L268.314 134.001Z" fill="#3F3D56"/>
        <path d="M275.518 87.8977C280.051 87.8977 283.726 84.2229 283.726 79.6899C283.726 75.1568 280.051 71.4821 275.518 71.4821C270.985 71.4821 267.311 75.1568 267.311 79.6899C267.311 84.2229 270.985 87.8977 275.518 87.8977Z" fill="#A0616A"/>
        <path d="M284.065 81.4792C284.31 80.4478 284.198 78.9965 284.059 77.9581C283.882 76.5888 283.419 75.272 282.701 74.0931C281.982 72.9141 281.024 71.8993 279.888 71.1144C279.452 70.7836 278.935 70.5779 278.391 70.5196C278.119 70.4967 277.847 70.5604 277.614 70.7015C277.38 70.8427 277.197 71.0541 277.092 71.3054C276.955 70.9638 276.749 70.6538 276.488 70.3946C276.227 70.1355 275.915 69.9326 275.572 69.7986C274.883 69.5348 274.143 69.435 273.409 69.5072C271.987 69.6244 270.622 70.1246 269.461 70.9546C268.3 71.7846 267.385 72.9135 266.814 74.2214C266.595 74.7422 265.982 72.8185 265.705 73.3106C265.449 73.8221 265.004 74.2134 264.464 74.4007C263.92 74.5526 263.699 76.795 263.484 76.2721C263.318 76.6585 263.253 77.0807 263.294 77.4994C263.334 77.9181 263.481 78.3196 263.719 78.6665C263.956 79.0134 264.278 79.2945 264.654 79.4836C265.03 79.6727 265.447 79.7636 265.868 79.7478C266.417 79.6768 266.962 79.5725 267.499 79.4357C268.484 79.3114 269.482 79.5524 270.302 80.1131C271.122 80.6738 271.709 81.5155 271.951 82.4791C272.101 81.9188 272.34 81.3863 272.66 80.9022C272.822 80.6615 273.039 80.4629 273.294 80.3231C273.548 80.1833 273.832 80.1063 274.123 80.0984C274.4 80.1303 274.668 80.2185 274.91 80.3576C275.152 80.4968 275.363 80.684 275.53 80.9077C275.892 81.3319 276.163 81.8269 276.527 82.2489C277.595 83.4872 279.04 86.3748 280.562 86.1642C281.763 85.998 283.731 82.8873 284.065 81.4792Z" fill="#2F2E41"/>
        <path d="M299.627 148.888C299.839 148.571 299.979 148.212 300.037 147.836C300.095 147.459 300.07 147.075 299.964 146.709C299.857 146.344 299.672 146.006 299.421 145.719C299.17 145.433 298.859 145.205 298.51 145.052L299.248 135.823L295.033 138.143L294.979 146.552C294.76 147.154 294.771 147.816 295.008 148.412C295.245 149.008 295.692 149.496 296.265 149.784C296.838 150.072 297.497 150.14 298.116 149.975C298.736 149.809 299.273 149.423 299.627 148.888Z" fill="#A0616A"/>
        <path d="M294.588 142.45L291.314 126.427L276.356 113.875C275.556 113.204 274.908 112.371 274.453 111.431C273.998 110.491 273.748 109.465 273.718 108.421C273.689 107.377 273.88 106.339 274.281 105.375C274.681 104.41 275.281 103.542 276.042 102.826C277.419 101.533 279.238 100.815 281.127 100.82C283.016 100.824 284.831 101.551 286.202 102.85L301.07 121.511L301.098 121.546L299.188 143.048L294.588 142.45Z" fill="#3F3D56"/>
        <path d="M332.005 214.398H195.008C194.946 214.398 194.885 214.386 194.828 214.363C194.771 214.339 194.719 214.305 194.676 214.261C194.632 214.218 194.597 214.166 194.574 214.109C194.55 214.052 194.538 213.991 194.538 213.929C194.538 213.868 194.55 213.806 194.574 213.749C194.597 213.693 194.632 213.641 194.676 213.597C194.719 213.554 194.771 213.519 194.828 213.496C194.885 213.472 194.946 213.46 195.008 213.46H332.005C332.067 213.46 332.128 213.472 332.185 213.496C332.242 213.519 332.294 213.554 332.337 213.597C332.381 213.641 332.416 213.693 332.439 213.749C332.463 213.806 332.475 213.868 332.475 213.929C332.475 213.991 332.463 214.052 332.439 214.109C332.416 214.166 332.381 214.218 332.337 214.261C332.294 214.305 332.242 214.339 332.185 214.363C332.128 214.386 332.067 214.398 332.005 214.398Z" fill="#CCCCCC"/>
        <path d="M243.469 138.164H181.212C180.778 138.163 180.362 137.991 180.055 137.684C179.748 137.377 179.576 136.961 179.575 136.528V111.266C179.576 110.833 179.748 110.417 180.055 110.11C180.362 109.803 180.778 109.63 181.212 109.63H243.469C243.903 109.63 244.318 109.803 244.625 110.11C244.932 110.417 245.105 110.832 245.105 111.266V136.528C245.105 136.961 244.932 137.377 244.625 137.684C244.318 137.991 243.903 138.163 243.469 138.164Z" fill="#AA0000"/>
        <path d="M237.541 150.282H187.14C186.882 150.282 186.626 150.232 186.387 150.133C186.149 150.035 185.932 149.89 185.749 149.708C185.567 149.525 185.422 149.309 185.323 149.07C185.224 148.832 185.173 148.576 185.173 148.318C185.173 148.06 185.224 147.804 185.323 147.566C185.422 147.328 185.567 147.111 185.749 146.929C185.932 146.746 186.149 146.602 186.387 146.503C186.626 146.405 186.882 146.354 187.14 146.354H237.541C240.073 146.319 240.098 150.317 237.541 150.282Z" fill="#E4E4E4"/>
        <path d="M237.541 159.282H187.14C186.619 159.282 186.119 159.075 185.751 158.707C185.383 158.339 185.176 157.839 185.176 157.318C185.176 156.798 185.383 156.298 185.751 155.93C186.119 155.562 186.619 155.355 187.14 155.355H237.541C240.073 155.319 240.098 159.318 237.541 159.282Z" fill="#E4E4E4"/>
        <path d="M237.541 168.282H187.14C186.882 168.283 186.626 168.232 186.387 168.133C186.149 168.035 185.932 167.89 185.749 167.708C185.567 167.526 185.422 167.309 185.323 167.071C185.224 166.832 185.173 166.577 185.173 166.318C185.173 166.06 185.224 165.805 185.323 165.566C185.422 165.328 185.567 165.111 185.749 164.929C185.932 164.747 186.149 164.602 186.387 164.503C186.626 164.405 186.882 164.354 187.14 164.355H237.541C240.073 164.319 240.098 168.318 237.541 168.282Z" fill="#E4E4E4"/>
        <path d="M82.2399 182.823L87.4529 181.169C88.1026 178.371 88.0595 175.457 87.3274 172.68C85.233 177.337 79.0886 178.478 75.5877 182.194C74.5046 183.362 73.6982 184.758 73.2282 186.28C72.7582 187.802 72.6366 189.41 72.8725 190.985L71.7758 194.705C74.3373 194.486 76.821 193.715 79.0556 192.443C81.2902 191.172 83.2227 189.432 84.72 187.342C85.5483 186.161 86.2246 184.881 86.733 183.531C84.5098 183.308 82.2399 182.823 82.2399 182.823Z" fill="#F2F2F2"/>
        <path d="M76.6695 175.943L80.5979 172.138C79.9316 169.344 78.5934 166.755 76.6994 164.596C76.9017 169.698 71.911 173.459 70.4351 178.347C69.9865 179.876 69.8875 181.485 70.1454 183.056C70.4034 184.628 71.0117 186.121 71.9252 187.426L72.6028 191.245C74.7979 189.907 76.6768 188.108 78.11 185.974C79.5432 183.84 80.4966 181.42 80.9046 178.882C81.1194 177.456 81.1537 176.008 81.0068 174.573C78.9177 175.365 76.6695 175.943 76.6695 175.943Z" fill="#F2F2F2"/>
        <path d="M87.1718 105.1C86.7427 105.158 86.3062 105.121 85.893 104.991C85.4798 104.862 85.1001 104.643 84.7805 104.351C84.4608 104.059 84.2092 103.7 84.0431 103.301C83.8771 102.901 83.8008 102.469 83.8195 102.037L64.8848 82.8247L70.1706 79.1448L87.1207 99.1867C87.8453 99.2664 88.5155 99.6091 89.0044 100.15C89.4932 100.691 89.7666 101.392 89.7729 102.121C89.7792 102.85 89.5179 103.556 89.0385 104.105C88.5591 104.654 87.8949 105.008 87.1718 105.1Z" fill="#FFB6B6"/>
        <path d="M59.0597 74.5147C59.0597 74.5147 57.7177 75.319 59.9513 77.7683C61.7395 79.7292 69.5426 89.1569 72.6572 91.1253C72.3175 92.106 80.9331 101.496 81.8389 102.094L86.6276 96.1185C86.3541 94.4052 76.9315 86.2253 76.2826 86.4334L73.2781 82.6988L66.4707 71.2805L60.0194 73.916L59.0597 74.5147Z" fill="#AA0000"/>
        <path d="M44.1063 188.988H47.6758L49.3746 175.22H44.1059L44.1063 188.988Z" fill="#FFB6B6"/>
        <path d="M42.9411 186.543L48.6441 186.203V188.646L54.0661 192.391C54.334 192.576 54.5357 192.842 54.6418 193.149C54.7479 193.457 54.7529 193.791 54.6561 194.101C54.5592 194.412 54.3656 194.684 54.1034 194.876C53.8413 195.069 53.5243 195.173 53.1989 195.173H46.4092L45.2389 192.756L44.782 195.173H42.222L42.9411 186.543Z" fill="#2F2E41"/>
        <path d="M64.1578 188.988H67.7273L69.426 175.22H64.1578V188.988Z" fill="#FFB6B6"/>
        <path d="M62.9926 186.543L68.6956 186.203V188.646L74.1176 192.391C74.3855 192.576 74.5872 192.842 74.6933 193.149C74.7994 193.457 74.8044 193.791 74.7076 194.101C74.6107 194.412 74.4171 194.684 74.1549 194.876C73.8928 195.069 73.5758 195.173 73.2504 195.173H66.4607L65.2904 192.756L64.8335 195.173H62.2735L62.9926 186.543Z" fill="#2F2E41"/>
        <path d="M42.5659 177.115H42.6047L43.2912 154.727C42.847 153.87 42.6215 152.917 42.6349 151.952C42.6483 150.986 42.9002 150.039 43.368 149.195L43.4663 149.017L43.2115 147.836C42.8842 146.318 43.0344 144.736 43.6415 143.307L44.2819 122.424C41.9939 107.595 52.8982 97.9243 52.8982 97.9243L50.9056 89.5417L70.6336 87.6013L69.2331 97.9243L72.7401 109.973C75.0585 132.56 74.6378 154.571 70.9589 175.895L71.0591 175.946C71.4203 176.071 71.5752 176.571 71.4052 177.064C71.2352 177.556 70.8046 177.854 70.4435 177.73L61.8168 177.43C61.4556 177.305 61.3007 176.805 61.4707 176.312C61.6407 175.82 62.0713 175.521 62.4324 175.646L63.019 175.943L61.7681 154.34L61.9069 150.394L61.6209 145.917L60.2986 125.781L55.2934 150.543L50.1809 177.364C50.3219 177.492 50.4209 177.659 50.4647 177.844C50.5086 178.029 50.4953 178.223 50.4266 178.401C50.3579 178.578 50.2371 178.73 50.08 178.838C49.9229 178.945 49.7369 179.002 49.5467 179.002H42.5659C42.316 179.001 42.0766 178.901 41.9001 178.725C41.7236 178.548 41.6245 178.308 41.6245 178.058C41.6245 177.808 41.7236 177.569 41.9001 177.392C42.0766 177.215 42.316 177.115 42.5659 177.115Z" fill="#2F2E41"/>
        <path d="M66.7913 68.4535L62.9116 66.1256L55.1521 65.3497L48.2939 68.842L48.3626 79.5107L52.7134 90.5759L69.6634 94.0695L71.641 84.3451C71.641 84.3451 76.6846 77.5708 71.253 73.6911L66.7913 68.4535Z" fill="#AA0000"/>
        <path d="M50.1839 114.517C49.8152 114.29 49.5008 113.985 49.2628 113.623C49.0248 113.261 48.8691 112.852 48.8065 112.424C48.7438 111.995 48.7759 111.558 48.9004 111.144C49.025 110.729 49.2389 110.347 49.5272 110.023L47.0253 83.1652L53.4468 83.6611L53.8869 109.906C54.3975 110.426 54.6995 111.116 54.7357 111.844C54.772 112.572 54.5399 113.288 54.0834 113.856C53.627 114.425 52.9779 114.806 52.2592 114.928C51.5405 115.049 50.8021 114.903 50.1839 114.517Z" fill="#FFB6B6"/>
        <path d="M48.5317 68.9491C48.5317 68.9491 46.9836 68.7226 47.1629 72.0326C47.3065 74.6824 46.6242 91.0157 47.7901 94.5109C46.9064 95.0553 46.8593 108.349 47.1818 109.386L54.6715 107.789C55.544 106.29 54.9695 92.5456 54.3354 92.296L54.3727 87.503L56.0279 71.7041L49.6536 69.093L48.5317 68.9491Z" fill="#AA0000"/>
        <path d="M86.8104 117.002C86.6099 116.757 86.4664 116.471 86.3903 116.164C86.3143 115.857 86.3076 115.536 86.3708 115.226C87.1116 111.54 87.1116 107.743 86.3708 104.056C86.3076 103.746 86.3143 103.426 86.3903 103.119C86.4664 102.812 86.6099 102.525 86.8104 102.28C87.0028 102.045 87.2443 101.855 87.518 101.723C87.7918 101.591 88.0911 101.52 88.395 101.516C91.6578 100.216 94.7825 100.216 97.684 101.516C98.1851 101.525 98.6666 101.712 99.0421 102.044C99.4177 102.376 99.6626 102.831 99.733 103.327C100.302 107.517 100.302 111.765 99.733 115.956C99.6618 116.458 99.4118 116.917 99.0289 117.25C98.646 117.583 98.1559 117.766 97.6487 117.766H88.4267C88.1174 117.767 87.8119 117.699 87.5324 117.567C87.2528 117.434 87.0062 117.242 86.8104 117.002Z" fill="#AA0000"/>
        <path d="M89.3925 106.331H97.1543C97.2828 106.331 97.4058 106.279 97.4965 106.188C97.5871 106.098 97.6381 105.974 97.6381 105.846C97.6381 105.717 97.5871 105.594 97.4965 105.503C97.4058 105.412 97.2828 105.361 97.1543 105.361H89.3925C89.2638 105.361 89.1404 105.412 89.0494 105.503C88.9585 105.594 88.9073 105.717 88.9073 105.846C88.9073 105.975 88.9585 106.098 89.0494 106.189C89.1404 106.28 89.2638 106.331 89.3925 106.331Z" fill="white"/>
        <path d="M89.3925 110.212H97.1544C97.2828 110.212 97.4058 110.16 97.4965 110.069C97.5872 109.978 97.6381 109.855 97.6381 109.727C97.6381 109.598 97.5872 109.475 97.4965 109.384C97.4058 109.293 97.2828 109.242 97.1544 109.242H89.3925C89.2641 109.242 89.141 109.293 89.0504 109.384C88.9597 109.475 88.9088 109.598 88.9088 109.727C88.9088 109.855 88.9597 109.978 89.0504 110.069C89.141 110.16 89.2641 110.212 89.3925 110.212Z" fill="white"/>
        <path d="M89.3925 114.093H97.1543C97.283 114.093 97.4064 114.042 97.4974 113.951C97.5883 113.86 97.6394 113.736 97.6394 113.608C97.6394 113.479 97.5883 113.356 97.4974 113.265C97.4064 113.174 97.283 113.123 97.1543 113.123H89.3925C89.2638 113.123 89.1404 113.174 89.0494 113.265C88.9585 113.356 88.9073 113.479 88.9073 113.608C88.9073 113.736 88.9585 113.86 89.0494 113.951C89.1404 114.042 89.2638 114.093 89.3925 114.093Z" fill="white"/>
        <path d="M111.282 195.033C111.283 195.094 111.271 195.155 111.247 195.212C111.224 195.269 111.189 195.321 111.146 195.364C111.102 195.408 111.05 195.442 110.993 195.466C110.937 195.489 110.876 195.501 110.814 195.501H0.468484C0.344235 195.501 0.225072 195.452 0.137215 195.364C0.0493572 195.276 0 195.157 0 195.033C0 194.908 0.0493572 194.789 0.137215 194.701C0.225072 194.614 0.344235 194.564 0.468484 194.564H110.814C110.876 194.564 110.937 194.576 110.993 194.599C111.05 194.623 111.102 194.657 111.146 194.701C111.189 194.745 111.224 194.796 111.247 194.853C111.271 194.91 111.283 194.971 111.282 195.033Z" fill="#CCCCCC"/>
        <path d="M66.3041 61.3836V54.155C66.3058 52.8825 66.0566 51.6221 65.571 50.4459C65.0853 49.2697 64.3727 48.2008 63.4737 47.3001C62.5748 46.3994 61.5072 45.6847 60.3319 45.1968C59.1566 44.7089 57.8968 44.4574 56.6242 44.4565C55.3517 44.4557 54.0915 44.7057 52.9156 45.1921C51.7397 45.6785 50.6712 46.3918 49.7711 47.2913C48.871 48.1908 48.157 49.2589 47.6698 50.4345C47.1826 51.61 46.9319 52.8701 46.9319 54.1426V54.155C45.2247 57.7125 46.2927 59.4038 46.9319 61.3836C46.9325 61.7283 47.0697 62.0588 47.3134 62.3026C47.5572 62.5463 47.8877 62.6835 48.2324 62.6841H65.003C65.3478 62.6837 65.6784 62.5466 65.9224 62.3028C66.1663 62.059 66.3036 61.7284 66.3041 61.3836Z" fill="#2F2E41"/>
        <path d="M59.7939 62.2144C63.7982 62.2144 67.0443 58.9683 67.0443 54.964C67.0443 50.9597 63.7982 47.7136 59.7939 47.7136C55.7896 47.7136 52.5435 50.9597 52.5435 54.964C52.5435 58.9683 55.7896 62.2144 59.7939 62.2144Z" fill="#FFB7B7"/>
        <path d="M52.206 56.8647C52.2717 56.8543 52.3375 56.8405 52.4032 56.8301C53.5341 56.6295 54.6651 56.4324 55.7926 56.2283L55.8963 53.6725L57.2625 55.962C60.3787 56.9961 63.2942 56.4116 66.0369 55.1216C66.9415 54.6921 67.8193 54.2082 68.6654 53.6725C68.435 52.2589 67.8915 50.9147 67.0747 49.7382C66.2579 48.5618 65.1884 47.5828 63.9444 46.8729C63.8407 46.8141 63.7404 46.7622 63.6366 46.7103L63.6353 46.71L63.6342 46.7093L63.6334 46.7082L63.6332 46.7068C63.4568 46.6238 63.2769 46.5443 63.0971 46.4717C61.6891 45.9214 60.1538 45.7821 58.6698 46.0698C57.1857 46.3576 55.8138 47.0606 54.7135 48.0972C52.5 50.2104 51.504 53.7001 52.206 56.8647Z" fill="#2F2E41"/>
    </g>
    <defs>
        <clipPath id="clip0_126_108">
            <rect width="332.474" height="214.398" fill="white"/>
        </clipPath>
    </defs>
</svg>
