<svg width="325" height="247" viewBox="0 0 325 247" fill="none" xmlns="http://www.w3.org/2000/svg">
    <g clip-path="url(#clip0_2101_583)">
        <path d="M163.522 0H18.5408C13.6252 0.00553498 8.91244 1.96072 5.43657 5.4366C1.96069 8.91249 0.00552272 13.6252 0 18.5408V188.779C0.00552375 193.695 1.9607 198.408 5.43657 201.883C8.91245 205.359 13.6252 207.315 18.5408 207.32H163.522C168.438 207.315 173.151 205.359 176.627 201.883C180.102 198.408 182.058 193.695 182.063 188.779V18.5408C182.058 13.6252 180.102 8.91249 176.627 5.4366C173.151 1.96072 168.438 0.00553498 163.522 0Z" fill="#F2F2F2"/>
        <path d="M163.523 5.33752H18.5408C15.0403 5.34145 11.6842 6.73377 9.20898 9.20902C6.73372 11.6843 5.34139 15.0403 5.33746 18.5409V188.779C5.3414 192.28 6.73372 195.636 9.20898 198.111C11.6842 200.586 15.0403 201.979 18.5408 201.983H163.523C167.023 201.979 170.379 200.586 172.854 198.111C175.329 195.636 176.722 192.28 176.726 188.779V18.5409C176.722 15.0403 175.329 11.6843 172.854 9.20907C170.379 6.73382 167.023 5.34149 163.523 5.33752Z" fill="white"/>
        <path d="M141.703 54.8383H68.3865C67.5676 54.8383 66.7823 54.513 66.2033 53.934C65.6242 53.3549 65.299 52.5696 65.299 51.7508C65.299 50.9319 65.6242 50.1466 66.2033 49.5675C66.7823 48.9885 67.5676 48.6632 68.3865 48.6632H141.703C142.108 48.6632 142.51 48.7431 142.884 48.8982C143.259 49.0534 143.599 49.2808 143.886 49.5675C144.173 49.8542 144.4 50.1946 144.555 50.5692C144.71 50.9438 144.79 51.3453 144.79 51.7508C144.79 52.1562 144.71 52.5577 144.555 52.9323C144.4 53.3069 144.173 53.6473 143.886 53.934C143.599 54.2207 143.259 54.4481 142.884 54.6033C142.51 54.7584 142.108 54.8383 141.703 54.8383Z" fill="#F2F2F2"/>
        <path d="M154.439 65.2587H68.3865C67.5682 65.2578 66.7838 64.9321 66.2055 64.3532C65.6272 63.7742 65.3024 62.9894 65.3024 62.1712C65.3024 61.3529 65.6272 60.5681 66.2055 59.9892C66.7838 59.4102 67.5682 59.0845 68.3865 59.0836H154.439C155.257 59.0845 156.041 59.4102 156.62 59.9892C157.198 60.5681 157.523 61.3529 157.523 62.1712C157.523 62.9894 157.198 63.7742 156.62 64.3532C156.041 64.9321 155.257 65.2578 154.439 65.2587Z" fill="#F2F2F2"/>
        <path d="M141.703 101.537H68.3865C67.5676 101.537 66.7823 101.212 66.2033 100.633C65.6242 100.054 65.299 99.2687 65.299 98.4498C65.299 97.6309 65.6242 96.8456 66.2033 96.2666C66.7823 95.6875 67.5676 95.3622 68.3865 95.3622H141.703C142.108 95.3622 142.51 95.4421 142.884 95.5973C143.259 95.7524 143.599 95.9799 143.886 96.2666C144.173 96.5533 144.4 96.8936 144.555 97.2682C144.71 97.6428 144.79 98.0443 144.79 98.4498C144.79 98.8553 144.71 99.2567 144.555 99.6313C144.4 100.006 144.173 100.346 143.886 100.633C143.599 100.92 143.259 101.147 142.884 101.302C142.51 101.457 142.108 101.537 141.703 101.537Z" fill="#F2F2F2"/>
        <path d="M154.439 111.958H68.3865C67.5682 111.957 66.7838 111.631 66.2055 111.052C65.6272 110.473 65.3024 109.689 65.3024 108.87C65.3024 108.052 65.6272 107.267 66.2055 106.688C66.7838 106.109 67.5682 105.784 68.3865 105.783H154.439C155.257 105.784 156.041 106.109 156.62 106.688C157.198 107.267 157.523 108.052 157.523 108.87C157.523 109.689 157.198 110.473 156.62 111.052C156.041 111.631 155.257 111.957 154.439 111.958Z" fill="#F2F2F2"/>
        <path d="M141.703 148.236H68.3865C67.5676 148.236 66.7823 147.911 66.2033 147.332C65.6242 146.753 65.299 145.968 65.299 145.149C65.299 144.33 65.6242 143.545 66.2033 142.966C66.7823 142.387 67.5676 142.061 68.3865 142.061H141.703C142.108 142.061 142.51 142.14 142.885 142.295C143.26 142.45 143.601 142.678 143.888 142.964C144.175 143.251 144.403 143.592 144.558 143.967C144.714 144.341 144.794 144.743 144.794 145.149C144.794 145.555 144.714 145.956 144.558 146.331C144.403 146.706 144.175 147.047 143.888 147.333C143.601 147.62 143.26 147.847 142.885 148.002C142.51 148.157 142.108 148.237 141.703 148.236Z" fill="#F2F2F2"/>
        <path d="M154.439 158.657H68.3865C67.5682 158.656 66.7838 158.33 66.2055 157.751C65.6272 157.172 65.3024 156.388 65.3024 155.569C65.3024 154.751 65.6272 153.966 66.2055 153.387C66.7838 152.808 67.5682 152.483 68.3865 152.482H154.439C155.257 152.483 156.041 152.808 156.62 153.387C157.198 153.966 157.523 154.751 157.523 155.569C157.523 156.388 157.198 157.172 156.62 157.751C156.041 158.33 155.257 158.656 154.439 158.657Z" fill="#F2F2F2"/>
        <path d="M51.9632 69.9892H26.0173C25.6248 69.9887 25.2485 69.8326 24.9709 69.5551C24.6934 69.2775 24.5372 68.9012 24.5368 68.5087V45.4132C24.5372 45.0207 24.6934 44.6444 24.9709 44.3668C25.2485 44.0893 25.6248 43.9332 26.0173 43.9327H51.9632C52.3557 43.9332 52.732 44.0893 53.0096 44.3668C53.2871 44.6444 53.4432 45.0207 53.4437 45.4132V68.5087C53.4432 68.9012 53.2871 69.2775 53.0096 69.5551C52.732 69.8326 52.3557 69.9887 51.9632 69.9892Z" fill="#E6E6E6"/>
        <path d="M51.9632 116.688H26.0173C25.6248 116.688 25.2485 116.532 24.9709 116.254C24.6934 115.977 24.5372 115.6 24.5368 115.208V92.1123C24.5372 91.7198 24.6934 91.3435 24.9709 91.0659C25.2485 90.7884 25.6248 90.6323 26.0173 90.6318H51.9632C52.3557 90.6323 52.732 90.7884 53.0096 91.0659C53.2871 91.3435 53.4432 91.7198 53.4437 92.1123V115.208C53.4432 115.6 53.2871 115.977 53.0096 116.254C52.732 116.532 52.3557 116.688 51.9632 116.688Z" fill="#E6E6E6"/>
        <path d="M51.9632 163.387H26.0173C25.6248 163.387 25.2485 163.231 24.9709 162.953C24.6934 162.676 24.5372 162.299 24.5368 161.907V138.811C24.5372 138.419 24.6934 138.043 24.9709 137.765C25.2485 137.487 25.6248 137.331 26.0173 137.331H51.9632C52.3557 137.331 52.732 137.487 53.0096 137.765C53.2871 138.043 53.4432 138.419 53.4437 138.811V161.907C53.4432 162.299 53.2871 162.676 53.0096 162.953C52.732 163.231 52.3557 163.387 51.9632 163.387Z" fill="#E6E6E6"/>
        <path d="M291.242 161.005L292.392 150.947L298.159 100.513L299.309 90.4541C299.862 85.5697 298.455 80.6653 295.396 76.8171C292.338 72.9688 287.878 70.4909 282.995 69.927L152.135 54.9635C147.251 54.4105 142.346 55.8176 138.498 58.8761C134.65 61.9346 132.172 66.3946 131.608 71.2778L131.605 71.3038L123.544 141.803L123.541 141.829C122.988 146.714 124.395 151.618 127.453 155.466C130.512 159.314 134.972 161.792 139.855 162.356L270.714 177.32C275.599 177.873 280.503 176.466 284.351 173.407C288.2 170.349 290.678 165.889 291.242 161.005Z" fill="#E6E6E6"/>
        <path d="M285.939 160.399L287.301 148.485L292.644 101.761L294.006 89.8478C294.4 86.3695 293.398 82.877 291.22 80.1365C289.042 77.3961 285.866 75.6315 282.388 75.2299L151.529 60.2664C148.05 59.8726 144.558 60.8746 141.818 63.0527C139.077 65.2307 137.313 68.4068 136.911 71.8843L136.908 71.9102L128.847 142.41L128.844 142.436C128.45 145.914 129.452 149.406 131.63 152.147C133.808 154.887 136.984 156.652 140.461 157.053L271.321 172.017C274.799 172.411 278.291 171.409 281.032 169.231C283.772 167.053 285.537 163.877 285.939 160.399Z" fill="white"/>
        <path d="M264.519 96.4761L191.678 88.1469C191.274 88.1012 190.884 87.9765 190.529 87.7799C190.174 87.5833 189.862 87.3187 189.609 87.0012C189.356 86.6837 189.169 86.3196 189.057 85.9295C188.945 85.5395 188.912 85.1313 188.958 84.7282C189.004 84.3251 189.129 83.935 189.326 83.5803C189.523 83.2256 189.788 82.9131 190.105 82.6609C190.423 82.4086 190.787 82.2214 191.178 82.11C191.568 81.9986 191.976 81.9652 192.379 82.0117L265.221 90.341C266.034 90.4348 266.776 90.8475 267.285 91.4884C267.794 92.1293 268.027 92.946 267.934 93.759C267.841 94.572 267.429 95.3149 266.789 95.8244C266.149 96.3339 265.332 96.5683 264.519 96.4761Z" fill="#E6E6E6"/>
        <path d="M275.989 108.276L190.494 98.4999C190.091 98.4541 189.7 98.3294 189.345 98.1328C188.991 97.9363 188.678 97.6717 188.425 97.3542C188.173 97.0367 187.985 96.6725 187.873 96.2825C187.762 95.8925 187.728 95.4843 187.774 95.0812C187.82 94.6781 187.945 94.2881 188.142 93.9334C188.339 93.5786 188.604 93.2662 188.922 93.0139C189.239 92.7617 189.604 92.5745 189.994 92.4631C190.384 92.3517 190.792 92.3183 191.195 92.3647L276.69 102.141C277.093 102.187 277.483 102.312 277.838 102.509C278.192 102.705 278.504 102.97 278.757 103.287C279.009 103.605 279.196 103.969 279.308 104.359C279.419 104.748 279.453 105.156 279.407 105.559C279.361 105.962 279.236 106.352 279.039 106.706C278.843 107.061 278.578 107.373 278.261 107.626C277.943 107.878 277.579 108.065 277.189 108.177C276.8 108.288 276.392 108.322 275.989 108.276Z" fill="#E6E6E6"/>
        <path d="M273.605 128.925L147.559 114.512C146.746 114.418 146.003 114.005 145.495 113.364C144.986 112.723 144.752 111.907 144.845 111.094C144.938 110.281 145.35 109.538 145.99 109.028C146.631 108.519 147.447 108.284 148.26 108.377L274.307 122.79C274.71 122.835 275.1 122.96 275.455 123.157C275.81 123.353 276.122 123.618 276.375 123.935C276.628 124.253 276.815 124.617 276.927 125.007C277.039 125.397 277.072 125.805 277.026 126.208C276.98 126.611 276.855 127.001 276.658 127.356C276.461 127.711 276.196 128.023 275.879 128.276C275.561 128.528 275.197 128.715 274.807 128.826C274.416 128.938 274.008 128.971 273.605 128.925Z" fill="#E6E6E6"/>
        <path d="M272.826 139.324L146.375 124.865C145.562 124.771 144.819 124.358 144.311 123.717C143.802 123.076 143.568 122.26 143.661 121.447C143.754 120.634 144.166 119.891 144.806 119.381C145.447 118.872 146.263 118.637 147.076 118.729L273.528 133.189C274.341 133.283 275.083 133.695 275.592 134.336C276.101 134.977 276.334 135.794 276.241 136.607C276.148 137.42 275.737 138.163 275.096 138.672C274.456 139.182 273.639 139.416 272.826 139.324Z" fill="#E6E6E6"/>
        <path d="M271.285 149.212L145.239 134.798C144.836 134.753 144.446 134.628 144.091 134.431C143.736 134.235 143.423 133.97 143.17 133.653C142.918 133.335 142.73 132.971 142.619 132.581C142.507 132.191 142.473 131.783 142.519 131.38C142.565 130.977 142.69 130.587 142.887 130.232C143.084 129.877 143.349 129.565 143.667 129.312C143.985 129.06 144.349 128.873 144.739 128.762C145.129 128.65 145.537 128.617 145.941 128.663L271.987 143.076C272.8 143.17 273.542 143.583 274.051 144.224C274.56 144.865 274.794 145.681 274.701 146.494C274.608 147.307 274.196 148.05 273.555 148.56C272.915 149.069 272.098 149.304 271.285 149.212Z" fill="#E6E6E6"/>
        <path d="M270.507 159.611L144.055 145.151C143.242 145.058 142.5 144.645 141.991 144.004C141.482 143.363 141.249 142.546 141.341 141.733C141.434 140.92 141.846 140.177 142.487 139.668C143.127 139.159 143.944 138.924 144.757 139.016L271.208 153.476C271.611 153.521 272.001 153.646 272.356 153.843C272.711 154.039 273.024 154.304 273.277 154.621C273.529 154.939 273.717 155.303 273.829 155.693C273.94 156.083 273.974 156.491 273.928 156.894C273.882 157.297 273.757 157.688 273.56 158.042C273.363 158.397 273.098 158.709 272.78 158.962C272.463 159.214 272.098 159.401 271.708 159.513C271.318 159.624 270.91 159.657 270.507 159.611Z" fill="#E6E6E6"/>
        <path d="M173.639 101.334L147.861 98.3862C147.471 98.3412 147.115 98.1433 146.871 97.8361C146.627 97.5288 146.515 97.1371 146.559 96.7471L149.183 73.8012C149.228 73.4113 149.425 73.0551 149.733 72.8109C150.04 72.5667 150.432 72.4543 150.822 72.4985L176.6 75.4461C176.989 75.4912 177.346 75.689 177.59 75.9963C177.834 76.3036 177.946 76.6952 177.902 77.0852L175.278 100.031C175.233 100.421 175.035 100.777 174.728 101.021C174.421 101.266 174.029 101.378 173.639 101.334Z" fill="#AA0000"/>
        <path d="M324.615 246.706H240.242C240.14 246.706 240.042 246.666 239.97 246.593C239.897 246.521 239.857 246.423 239.857 246.321C239.857 246.219 239.897 246.121 239.97 246.049C240.042 245.976 240.14 245.936 240.242 245.936H324.615C324.717 245.936 324.815 245.976 324.887 246.049C324.959 246.121 325 246.219 325 246.321C325 246.423 324.959 246.521 324.887 246.593C324.815 246.666 324.717 246.706 324.615 246.706Z" fill="#3F3D56"/>
        <path d="M292.933 99.5213C292.803 100.033 292.788 100.567 292.887 101.086C292.986 101.605 293.197 102.096 293.507 102.524C293.816 102.952 294.215 103.307 294.677 103.564C295.138 103.821 295.65 103.974 296.177 104.012L298.787 111.844L303.933 111.418L300.092 100.41C300.097 99.5208 299.775 98.6607 299.188 97.9928C298.601 97.3249 297.79 96.8954 296.907 96.7859C296.025 96.6764 295.133 96.8943 294.4 97.3985C293.668 97.9026 293.146 98.658 292.933 99.5213Z" fill="#FFB8B8"/>
        <path d="M296.875 150.809C297.478 151.363 298.216 151.748 299.016 151.926C299.815 152.103 300.647 152.066 301.428 151.819C302.209 151.572 302.911 151.123 303.463 150.518C304.015 149.913 304.397 149.173 304.572 148.373L308.648 129.699C309.345 126.505 309.181 123.184 308.172 120.075L303.402 105.367C303.333 105.156 303.22 104.962 303.07 104.799C302.92 104.636 302.736 104.507 302.531 104.421C302.326 104.335 302.106 104.295 301.884 104.302C301.662 104.31 301.445 104.365 301.246 104.465L298.133 106.023C297.81 106.185 297.555 106.454 297.41 106.784C297.266 107.115 297.242 107.485 297.343 107.831L297.657 108.911C300.267 117.888 300.404 127.403 298.053 136.451L295.518 146.21C295.305 147.028 295.319 147.888 295.558 148.698C295.797 149.508 296.252 150.238 296.875 150.809Z" fill="#AA0000"/>
        <path d="M280.565 242.678L276.161 242.677L274.066 225.689L280.567 225.689L280.565 242.678Z" fill="#FFB8B8"/>
        <path d="M273.015 241.419H281.509V246.767H267.666C267.666 246.065 267.805 245.369 268.073 244.72C268.342 244.071 268.736 243.482 269.233 242.985C269.729 242.489 270.319 242.095 270.968 241.826C271.617 241.557 272.312 241.419 273.015 241.419Z" fill="#2F2E41"/>
        <path d="M304.305 242.678L299.901 242.677L297.806 225.689L304.307 225.689L304.305 242.678Z" fill="#FFB8B8"/>
        <path d="M296.755 241.419H305.249V246.767H291.407C291.407 246.065 291.545 245.369 291.814 244.72C292.083 244.071 292.477 243.482 292.973 242.985C293.47 242.489 294.059 242.095 294.708 241.826C295.357 241.557 296.053 241.419 296.755 241.419Z" fill="#2F2E41"/>
        <path d="M291.406 121.907C296.632 121.907 300.869 117.671 300.869 112.445C300.869 107.219 296.632 102.982 291.406 102.982C286.18 102.982 281.944 107.219 281.944 112.445C281.944 117.671 286.18 121.907 291.406 121.907Z" fill="#FFB8B8"/>
        <path d="M259.051 174.155C259.117 173.631 259.297 173.128 259.579 172.682C259.861 172.235 260.237 171.855 260.681 171.569C261.125 171.284 261.626 171.099 262.15 171.028C262.673 170.957 263.206 171.001 263.71 171.158L268.998 164.819L273.634 167.093L266.04 175.941C265.72 176.77 265.107 177.454 264.317 177.861C263.527 178.269 262.614 178.372 261.753 178.152C260.891 177.932 260.14 177.404 259.643 176.667C259.145 175.931 258.934 175.037 259.051 174.155Z" fill="#FFB8B8"/>
        <path d="M293.71 121.907C295.135 121.938 296.549 121.667 297.861 121.112C299.173 120.557 300.353 119.731 301.323 118.687C302.292 117.644 303.031 116.407 303.488 115.058C303.946 113.71 304.114 112.279 303.979 110.861C303.845 109.443 303.412 108.069 302.709 106.83C302.006 105.592 301.049 104.515 299.9 103.673C298.751 102.83 297.438 102.24 296.045 101.942C294.652 101.643 293.212 101.643 291.819 101.94C289.738 100.677 287.318 99.8267 284.894 100.043C282.469 100.259 280.071 101.699 279.164 103.958C278.257 106.217 279.231 109.195 281.486 110.113C282.932 110.702 284.564 110.417 286.106 110.179C287.649 109.942 289.332 109.787 290.674 110.583C292.017 111.379 292.62 113.513 291.418 114.508C290.78 115.057 290.325 115.786 290.113 116.6C289.901 117.413 289.941 118.272 290.23 119.062C290.834 120.625 292.483 121.88 293.71 121.907Z" fill="#2F2E41"/>
        <path d="M305.45 173.781L307.129 237.481C307.135 237.693 307.096 237.904 307.016 238.101C306.936 238.298 306.817 238.476 306.665 238.624C306.513 238.773 306.332 238.888 306.133 238.963C305.934 239.038 305.722 239.071 305.51 239.06L299.981 238.778C299.628 238.76 299.292 238.621 299.029 238.385C298.766 238.149 298.593 237.83 298.537 237.481L291.96 196.108C291.932 195.931 291.843 195.769 291.709 195.651C291.574 195.532 291.403 195.464 291.223 195.459C291.044 195.453 290.869 195.51 290.727 195.62C290.585 195.73 290.486 195.886 290.447 196.061L281.545 235.896C281.497 236.109 281.405 236.309 281.274 236.484C281.143 236.658 280.977 236.803 280.786 236.909C280.595 237.014 280.384 237.078 280.166 237.096C279.949 237.113 279.73 237.085 279.525 237.012L274.037 236.676C273.72 236.564 273.448 236.35 273.263 236.068C273.079 235.786 272.992 235.451 273.016 235.115L277.807 173.178L305.45 173.781Z" fill="#2F2E41"/>
        <path d="M308.144 143.526C309.07 133.873 301.973 125.142 292.3 124.455C288.132 124.16 281.662 124.054 279.529 129.516C273.104 145.973 284.351 145.573 280.476 159.83C276.601 174.088 273.178 174.905 278.495 175.934C283.813 176.964 307.724 183.041 306.742 173.006C306.139 166.838 307.221 153.155 308.144 143.526Z" fill="#AA0000"/>
        <path d="M281.437 127.843C282.201 127.547 283.029 127.458 283.838 127.585C284.647 127.712 285.409 128.049 286.045 128.564C286.682 129.079 287.172 129.753 287.465 130.518C287.758 131.283 287.844 132.111 287.715 132.92L284.695 151.794C284.178 155.022 282.813 158.054 280.74 160.581L270.931 172.533C270.79 172.705 270.614 172.844 270.415 172.941C270.215 173.038 269.997 173.091 269.775 173.096C269.553 173.101 269.333 173.058 269.129 172.971C268.926 172.883 268.743 172.752 268.595 172.587L266.265 169.999C266.024 169.731 265.884 169.387 265.87 169.027C265.856 168.667 265.969 168.313 266.189 168.028L266.876 167.137C272.582 159.732 276.182 150.923 277.295 141.641L278.495 131.63C278.596 130.791 278.923 129.995 279.441 129.328C279.959 128.661 280.649 128.148 281.437 127.843Z" fill="#AA0000"/>
    </g>
    <defs>
        <clipPath id="clip0_2101_583">
            <rect width="325" height="246.767" fill="white"/>
        </clipPath>
    </defs>
</svg>
