<svg width="293" height="231" viewBox="0 0 293 231" fill="none" xmlns="http://www.w3.org/2000/svg">
    <g clip-path="url(#clip0_126_205)">
        <path d="M265.995 0.150757H0.113529V170.433H265.995V0.150757Z" fill="#E6E6E6"/>
        <path d="M258.392 21.5084H7.71634V160.359H258.392V21.5084Z" fill="white"/>
        <path d="M265.881 0H0V11.2956H265.881V0Z" fill="#AA0000"/>
        <path d="M8.39399 7.86844C9.55023 7.86844 10.4875 6.93113 10.4875 5.77489C10.4875 4.61865 9.55023 3.68134 8.39399 3.68134C7.23775 3.68134 6.30044 4.61865 6.30044 5.77489C6.30044 6.93113 7.23775 7.86844 8.39399 7.86844Z" fill="white"/>
        <path d="M16.3406 7.86844C17.4968 7.86844 18.4342 6.93113 18.4342 5.77489C18.4342 4.61865 17.4968 3.68134 16.3406 3.68134C15.1844 3.68134 14.247 4.61865 14.247 5.77489C14.247 6.93113 15.1844 7.86844 16.3406 7.86844Z" fill="white"/>
        <path d="M24.2872 7.86844C25.4434 7.86844 26.3808 6.93113 26.3808 5.77489C26.3808 4.61865 25.4434 3.68134 24.2872 3.68134C23.131 3.68134 22.1937 4.61865 22.1937 5.77489C22.1937 6.93113 23.131 7.86844 24.2872 7.86844Z" fill="white"/>
        <path d="M94.9055 35.9152H30.4937V145.952H94.9055V35.9152Z" fill="#E6E6E6"/>
        <path d="M159.701 35.9152H106.024V66.2041H159.701V35.9152Z" fill="#AA0000"/>
        <path d="M159.701 74.639H106.024V107.228H159.701V74.639Z" fill="#E6E6E6"/>
        <path d="M159.701 115.663H106.024V145.952H159.701V115.663Z" fill="#E6E6E6"/>
        <path d="M235.615 35.9152H171.203V83.8687H235.615V35.9152Z" fill="#E6E6E6"/>
        <path d="M235.615 97.9987H171.203V145.952H235.615V97.9987Z" fill="#E6E6E6"/>
        <path d="M210.801 87.3137V76.99C210.801 73.3211 212.259 69.8024 214.853 67.2081C217.447 64.6137 220.966 63.1562 224.635 63.1562C228.304 63.1562 231.822 64.6137 234.417 67.2081C237.011 69.8024 238.469 73.3211 238.469 76.99V87.3137C238.468 87.8064 238.272 88.2787 237.924 88.6271C237.575 88.9754 237.103 89.1714 236.61 89.172H212.659C212.167 89.1714 211.694 88.9754 211.346 88.6271C210.998 88.2787 210.802 87.8064 210.801 87.3137Z" fill="#2F2E41"/>
        <path d="M245.09 221.665L240.211 223.015L232.68 204.838L239.882 202.845L245.09 221.665Z" fill="#FFB8B8"/>
        <path d="M236.34 222.586L245.75 219.981L247.39 225.906L232.055 230.15C231.84 229.372 231.78 228.559 231.878 227.758C231.977 226.957 232.233 226.183 232.631 225.48C233.029 224.778 233.561 224.161 234.198 223.664C234.834 223.167 235.562 222.801 236.34 222.586Z" fill="#2F2E41"/>
        <path d="M194.221 225.418H189.158L186.749 205.89H194.222L194.221 225.418Z" fill="#FFB8B8"/>
        <path d="M185.542 223.971H195.306V230.119H179.394C179.394 229.311 179.553 228.512 179.862 227.766C180.171 227.02 180.624 226.343 181.195 225.772C181.766 225.201 182.443 224.748 183.189 224.439C183.935 224.13 184.735 223.971 185.542 223.971Z" fill="#2F2E41"/>
        <path d="M188.116 116.285C188.478 116.773 188.941 117.176 189.475 117.465C190.009 117.754 190.6 117.922 191.206 117.959C191.812 117.995 192.418 117.897 192.983 117.674C193.547 117.45 194.055 117.105 194.472 116.664L207.93 122.717L206.706 115.147L194.114 110.56C193.326 109.909 192.326 109.569 191.305 109.606C190.284 109.643 189.311 110.053 188.572 110.758C187.833 111.464 187.378 112.417 187.294 113.435C187.21 114.454 187.502 115.468 188.116 116.285Z" fill="#FFB8B8"/>
        <path d="M216.079 161.808C211.85 161.808 207.473 161.178 203.794 159.305C201.841 158.33 200.11 156.962 198.709 155.288C197.309 153.614 196.269 151.668 195.655 149.573C193.738 143.503 196.155 137.54 198.493 131.773C199.941 128.2 201.309 124.825 201.664 121.498L201.788 120.316C202.341 115.011 202.819 110.429 205.462 108.711C206.833 107.82 208.675 107.769 211.095 108.555L233.826 115.939L232.99 159.088L232.852 159.134C232.733 159.174 224.72 161.808 216.079 161.808Z" fill="#2F2E41"/>
        <path d="M210.698 95.1218C210.698 95.1218 221.847 91.8182 230.519 93.0571C230.519 93.0571 225.564 120.312 227.216 129.396C228.867 138.481 198.516 132.907 204.71 124.235L206.775 113.911C206.775 113.911 202.645 109.781 206.362 104.826L210.698 95.1218Z" fill="#AA0000"/>
        <path d="M205.214 160.99L191.472 158.413L196.27 121.493C196.592 120.462 204.024 97.07 207.399 95.8043C209.85 94.9413 212.356 94.245 214.901 93.7202L215.39 93.6224L212.635 97.7555L201.665 124.041L205.214 160.99Z" fill="#2F2E41"/>
        <path d="M198.054 220.893L180.299 217.934L190.263 177.249L205.089 121.61L205.235 122.598C205.247 122.671 206.632 129.94 227.184 126.715L227.364 126.686L227.414 126.863L252.254 214.629L232.024 218.001L213.572 153.967L198.054 220.893Z" fill="#2F2E41"/>
        <path d="M222.662 167.899L222.673 167.587C222.686 167.24 223.907 132.745 223.499 118.872C223.09 104.952 227.597 92.8976 227.642 92.7774L227.679 92.6806L227.778 92.652C233.609 90.9863 238.667 95.9578 238.718 96.0082L238.789 96.0792L237.128 109.779L244.238 159.598L222.662 167.899Z" fill="#2F2E41"/>
        <path d="M221.792 88.9316C227.394 88.9316 231.935 84.3907 231.935 78.7892C231.935 73.1877 227.394 68.6468 221.792 68.6468C216.191 68.6468 211.65 73.1877 211.65 78.7892C211.65 84.3907 216.191 88.9316 221.792 88.9316Z" fill="#FFB8B8"/>
        <path d="M207.528 77.8159C207.532 74.9146 208.686 72.1331 210.737 70.0816C212.789 68.0301 215.57 66.8761 218.471 66.8728H220.536C223.438 66.8761 226.219 68.0301 228.271 70.0816C230.322 72.1331 231.476 74.9146 231.479 77.8159V78.0224H227.116L225.628 73.855L225.33 78.0224H223.075L222.324 75.9197L222.174 78.0224H207.528V77.8159Z" fill="#2F2E41"/>
        <path d="M220.794 90.3329C220.589 90.0555 220.467 89.7258 220.441 89.382C220.415 89.0381 220.487 88.6939 220.648 88.3891C222.837 84.2274 225.9 76.5374 221.834 71.795L221.541 71.4542H233.347V89.1779L222.622 91.07C222.514 91.0892 222.404 91.099 222.294 91.0991C222.001 91.0991 221.712 91.0296 221.452 90.8964C221.191 90.7632 220.965 90.5701 220.794 90.3329Z" fill="#2F2E41"/>
        <path d="M173.265 17.1565C165.004 10.186 154.896 5.76688 144.169 4.43674C133.443 3.10659 122.561 4.9228 112.848 9.66437C103.135 14.4059 95.0097 21.8684 89.4605 31.1438C83.9114 40.4191 81.1779 51.1073 81.5925 61.9079C82.0071 72.7085 85.5521 83.1557 91.796 91.9783C98.0399 100.801 106.714 107.618 116.761 111.601C126.809 115.584 137.798 116.561 148.391 114.412C158.984 112.264 168.724 107.083 176.426 99.4994L244.817 157.208C245.858 158.088 247.206 158.518 248.563 158.404C249.921 158.291 251.178 157.642 252.058 156.602C252.938 155.561 253.368 154.213 253.255 152.856C253.141 151.498 252.492 150.241 251.452 149.361L251.444 149.354L183.053 91.6458C190.998 80.2431 194.398 66.2844 192.587 52.5052C190.777 38.726 183.886 26.1196 173.265 17.1565ZM168.856 86.0889C163.528 92.4032 156.447 96.9959 148.509 99.286C140.571 101.576 132.132 101.461 124.259 98.9548C116.386 96.4487 109.434 91.6644 104.28 85.2069C99.1265 78.7494 96.0035 70.9087 95.3061 62.6763C94.6086 54.4439 96.368 46.1896 100.362 38.9571C104.356 31.7247 110.404 25.8389 117.743 22.0441C125.082 18.2494 133.381 16.7161 141.592 17.6381C149.802 18.5601 157.554 21.896 163.869 27.224C168.061 30.7617 171.516 35.0905 174.036 39.9633C176.555 44.8362 178.09 50.1575 178.554 55.6236C179.017 61.0897 178.399 66.5935 176.735 71.8208C175.071 77.048 172.393 81.8963 168.856 86.0889Z" fill="#3F3D56"/>
        <path opacity="0.3" d="M109.991 91.0759C101.977 84.3134 96.7997 74.7844 95.4865 64.3812C94.1734 53.978 96.8205 43.4614 102.902 34.9196C102.104 35.7239 101.332 36.5663 100.586 37.4468C97.0483 41.6393 94.3711 46.4876 92.7071 51.7149C91.0432 56.9421 90.4251 62.4459 90.8882 67.912C91.3513 73.3781 92.8864 78.6995 95.4061 83.5723C97.9257 88.4451 101.38 92.7739 105.573 96.3116C109.766 99.8493 114.614 102.527 119.841 104.19C125.068 105.854 130.572 106.473 136.038 106.009C141.504 105.546 146.826 104.011 151.699 101.492C156.571 98.9719 160.9 95.5172 164.438 91.3246C165.182 90.4431 165.882 89.5402 166.539 88.6161C159.142 96.0483 149.221 100.427 138.745 100.883C128.269 101.338 118.005 97.8377 109.991 91.0759Z" fill="black"/>
        <path d="M225.048 134.016C225.638 134.161 226.252 134.174 226.848 134.055C227.443 133.936 228.005 133.688 228.494 133.329C228.983 132.969 229.388 132.507 229.679 131.974C229.97 131.441 230.141 130.851 230.179 130.245L244.398 126.298L238.618 121.259L226.001 125.78C224.979 125.783 223.994 126.16 223.232 126.841C222.47 127.522 221.984 128.459 221.866 129.475C221.749 130.49 222.008 131.513 222.594 132.35C223.181 133.187 224.054 133.78 225.048 134.016Z" fill="#FFB8B8"/>
        <path d="M230.958 131.927L230.093 123.707L241.971 117.154L234.227 107.78L235.49 97.2501L238.637 95.9016L238.735 96.0274C240.219 97.9352 253.231 114.726 253.231 116.802C253.231 118.933 250.742 125.194 247.336 126.897C244.051 128.54 231.714 131.732 231.19 131.868L230.958 131.927Z" fill="#2F2E41"/>
        <path d="M292.587 230.67H135.254C135.144 230.67 135.039 230.627 134.962 230.549C134.884 230.472 134.841 230.367 134.841 230.257C134.841 230.148 134.884 230.043 134.962 229.965C135.039 229.888 135.144 229.844 135.254 229.844H292.587C292.697 229.844 292.802 229.888 292.879 229.965C292.956 230.043 293 230.148 293 230.257C293 230.367 292.956 230.472 292.879 230.549C292.802 230.627 292.697 230.67 292.587 230.67Z" fill="#CCCCCC"/>
    </g>
    <defs>
        <clipPath id="clip0_126_205">
            <rect width="293" height="230.67" fill="white"/>
        </clipPath>
    </defs>
</svg>
