<svg width="67" height="54" viewBox="0 0 67 54" fill="none" xmlns="http://www.w3.org/2000/svg">
    <g clip-path="url(#clip0_2103_806)">
        <path d="M38.2683 20.8049C38.2683 18.2049 36.4462 16.7696 33.2459 16.7696H27.3592V25.146H32.3232C36.1543 25.1343 38.2683 23.5813 38.2683 20.8049ZM59.7013 19.299C58.5916 15.6637 58.4282 11.2049 58.5566 7.75784C58.6851 4.16962 55.9052 0.875504 52.1677 0.875504H13.7636C10.0143 0.875504 7.24609 4.18138 7.37458 7.75784C7.49138 11.2049 7.33953 15.6637 6.22992 19.299C5.10864 22.946 3.22816 25.2519 0.132935 25.546V28.899C3.21648 29.1931 5.10864 31.4989 6.22992 35.146C7.33953 38.7813 7.50306 43.2401 7.37458 46.6871C7.24609 50.2754 10.026 53.5695 13.7636 53.5695H52.1559C55.9052 53.5695 58.6734 50.2636 58.545 46.6871C58.4281 43.2401 58.58 38.7813 59.6896 35.146C60.8108 31.4989 62.6914 29.1931 65.7749 28.899V25.546C62.7031 25.2519 60.8108 22.946 59.7013 19.299ZM34.3789 41.2401H22.9441V13.2049H34.3205C39.378 13.2049 42.6951 15.9578 42.6951 20.1931C42.6951 23.1696 40.4642 25.8284 37.6143 26.2872V26.4401C41.492 26.8637 44.0967 29.5695 44.0967 33.2989C44.0967 38.2519 40.4408 41.2401 34.3789 41.2401ZM33.2108 28.4519H27.3592V37.6754H33.4679C37.4624 37.6754 39.5766 36.0636 39.5766 33.0284C39.5766 30.0048 37.404 28.4519 33.2108 28.4519Z" fill="#AA0000"/>
    </g>
    <defs>
        <clipPath id="clip0_2103_806">
            <rect width="66.0572" height="54" fill="white" transform="translate(0.010376)"/>
        </clipPath>
    </defs>
</svg>
