<svg width="59" height="58" viewBox="0 0 59 58" fill="none" xmlns="http://www.w3.org/2000/svg">
    <g clip-path="url(#clip0_2103_825)">
        <mask id="mask0_2103_825" style="mask-type:luminance" maskUnits="userSpaceOnUse" x="0" y="0" width="59"
              height="58">
            <path d="M58.3983 0.432266H0.86145V57.9691H58.3983V0.432266Z" fill="white"/>
        </mask>
        <g mask="url(#mask0_2103_825)">
            <path
                d="M47.8574 20.3454C47.2506 20.1431 46.6437 19.9521 46.0369 19.7723C46.138 19.3565 46.2279 18.9407 46.3178 18.5249C47.7001 11.8273 46.7898 6.44442 43.7219 4.66887C40.7664 2.97198 35.9455 4.73629 31.0683 8.98412C30.5851 9.39996 30.1131 9.83821 29.6636 10.2765C29.3602 9.98427 29.0455 9.69207 28.7309 9.41112C23.6178 4.87114 18.4934 2.96074 15.4254 4.74753C12.4812 6.45566 11.6046 11.5238 12.8408 17.8619C12.9644 18.4912 13.0993 19.1092 13.2566 19.7385C12.5374 19.9408 11.8294 20.1656 11.1664 20.4016C5.16548 22.4805 0.86145 25.7619 0.86145 29.1557C0.86145 32.6619 5.44642 36.1793 11.6833 38.3145C12.189 38.483 12.6947 38.6516 13.2117 38.7977C13.043 39.4719 12.897 40.135 12.7621 40.8204C11.5822 47.0573 12.5036 52.0019 15.4479 53.6988C18.4821 55.4519 23.584 53.6539 28.5511 49.3048C28.9444 48.9565 29.3377 48.5969 29.7311 48.2148C30.2255 48.698 30.7425 49.1588 31.2594 49.6083C36.069 53.7438 40.8226 55.4182 43.7556 53.7213C46.7898 51.9682 47.7787 46.6528 46.4976 40.1799C46.3965 39.6855 46.2841 39.1797 46.1605 38.6628C46.5201 38.5617 46.8685 38.4493 47.2168 38.337C53.701 36.1905 58.3983 32.7181 58.3983 29.1557C58.3983 25.7508 53.9707 22.4469 47.8574 20.3454ZM32.6528 10.8046C36.8332 7.16363 40.7327 5.73644 42.5083 6.75907C44.4074 7.84913 45.1379 12.2543 43.9467 18.0417C43.868 18.4238 43.7894 18.7946 43.6882 19.1655C41.1934 18.6036 38.665 18.199 36.1253 17.9743C34.6644 15.8841 33.0686 13.8838 31.338 12.0071C31.7763 11.5913 32.2033 11.198 32.6528 10.8046ZM19.6508 34.9881C20.224 35.9658 20.8083 36.9435 21.4264 37.8986C19.6733 37.7077 17.9315 37.4267 16.2121 37.0559C16.7065 35.4376 17.3246 33.7632 18.0439 32.055C18.5608 33.044 19.0889 34.0217 19.6508 34.9881ZM16.2458 21.4691C17.8641 21.1095 19.5834 20.8174 21.3702 20.5926C20.7746 21.5254 20.1902 22.4805 19.6396 23.447C19.0889 24.4022 18.5495 25.3799 18.0439 26.3688C17.3358 24.6944 16.7403 23.0537 16.2458 21.4691ZM19.325 29.212C20.0666 27.6612 20.8758 26.144 21.7298 24.6495C22.5839 23.1548 23.5054 21.7052 24.4718 20.2779C26.1575 20.1544 27.8768 20.087 29.6299 20.087C31.383 20.087 33.1136 20.1544 34.788 20.2779C35.7432 21.6939 36.6534 23.1436 37.5187 24.627C38.384 26.1104 39.1931 27.6274 39.9573 29.167C39.2044 30.7178 38.3953 32.2461 37.5299 33.752C36.6759 35.2466 35.7657 36.6963 34.8104 38.1347C33.136 38.2583 31.3942 38.3145 29.6299 38.3145C27.8656 38.3145 26.1575 38.2583 24.5055 38.1572C23.5279 36.7299 22.6064 35.269 21.741 33.7745C20.8758 32.2798 20.0778 30.7628 19.325 29.212ZM39.6201 34.9657C40.1933 33.9767 40.7327 32.9765 41.2608 31.9651C41.98 33.5947 42.6094 35.2466 43.16 36.9435C41.4182 37.3368 39.6539 37.6402 37.8783 37.8425C38.4852 36.8985 39.0582 35.9321 39.6201 34.9657ZM41.2384 26.3688C40.7102 25.3799 40.1708 24.3909 39.6089 23.4245C39.0582 22.4693 38.4852 21.5254 37.8895 20.5926C39.6988 20.8174 41.4294 21.1208 43.0477 21.4916C42.5307 23.1548 41.9239 24.773 41.2384 26.3688ZM29.6523 13.7264C30.8323 15.0075 31.9448 16.356 32.9787 17.7495C30.7536 17.6484 28.5174 17.6484 26.2923 17.7495C27.3936 16.2999 28.5286 14.9514 29.6523 13.7264ZM16.6166 6.83774C18.5046 5.73644 22.6963 7.30972 27.1126 11.2205C27.3936 11.4677 27.6745 11.7374 27.9667 12.0071C26.2249 13.8838 24.6179 15.8841 23.1458 17.9743C20.6061 18.199 18.0888 18.5923 15.594 19.143C15.4479 18.5698 15.3243 17.9855 15.2007 17.4011C14.1443 11.9622 14.8411 7.86037 16.6166 6.83774ZM13.8634 36.4602C13.3915 36.3254 12.9307 36.1793 12.47 36.022C10.0763 35.269 7.35682 34.0778 5.39023 32.5158C4.25523 31.7292 3.49106 30.5155 3.27755 29.1557C3.27755 27.0993 6.82865 24.4697 11.953 22.6828C12.5935 22.4581 13.2453 22.2558 13.8971 22.0648C14.6613 24.5033 15.5828 26.897 16.6504 29.212C15.5716 31.5606 14.6388 33.9879 13.8634 36.4602ZM26.9666 47.4732C25.1123 49.17 22.966 50.5185 20.6285 51.44C19.3811 52.0357 17.9427 52.0918 16.6616 51.5862C14.8748 50.5523 14.1331 46.5853 15.1445 41.2475C15.2681 40.6182 15.403 39.9889 15.5603 39.3708C18.0775 39.9102 20.6172 40.281 23.1907 40.4721C24.6741 42.5735 26.3035 44.585 28.0454 46.473C27.6858 46.8214 27.3262 47.1585 26.9666 47.4732ZM29.7198 44.7423C28.5735 43.5062 27.4273 42.1353 26.3148 40.6631C27.3936 40.7081 28.5061 40.7305 29.6299 40.7305C30.7874 40.7305 31.9224 40.7081 33.0461 40.6519C32.0123 42.0791 30.8998 43.4388 29.7198 44.7423ZM44.4074 48.1137C44.3063 49.4847 43.632 50.7658 42.5532 51.6311C40.7664 52.665 36.9568 51.3164 32.8439 47.7878C32.3719 47.3833 31.8999 46.9449 31.4167 46.4954C33.136 44.5963 34.7205 42.5848 36.1589 40.4721C38.7324 40.2586 41.2946 39.8653 43.823 39.2921C43.9354 39.7529 44.0366 40.2136 44.1265 40.6631C44.6771 43.0905 44.767 45.6189 44.4074 48.1137ZM46.4526 36.0332C46.138 36.1344 45.8233 36.2355 45.4975 36.3254C44.7109 33.8755 43.7444 31.482 42.6318 29.1557C43.7107 26.8632 44.621 24.5033 45.3851 22.0873C45.9695 22.2558 46.5314 22.4356 47.0708 22.6154C52.3075 24.4134 55.9822 27.088 55.9822 29.1332C55.9822 31.3358 52.0603 34.179 46.4526 36.0332ZM29.6299 34.3475C32.473 34.3475 34.7767 32.0439 34.7767 29.2007C34.7767 26.3576 32.473 24.0538 29.6299 24.0538C26.7868 24.0538 24.483 26.3576 24.483 29.2007C24.483 32.0439 26.7868 34.3475 29.6299 34.3475Z"
                fill="#AA0000"/>
        </g>
    </g>
    <defs>
        <clipPath id="clip0_2103_825">
            <rect width="58" height="58" fill="white" transform="translate(0.861328)"/>
        </clipPath>
    </defs>
</svg>
