<svg width="74" height="73" viewBox="0 0 74 73" fill="none" xmlns="http://www.w3.org/2000/svg">
<g clip-path="url(#clip0_2103_811)">
<mask id="mask0_2103_811" style="mask-type:luminance" maskUnits="userSpaceOnUse" x="0" y="0" width="73" height="73">
<path d="M72.6629 0H0.143311V72.4568H72.6629V0Z" fill="white"/>
</mask>
<g mask="url(#mask0_2103_811)">
<path fill-rule="evenodd" clip-rule="evenodd" d="M18.2732 28.9827C20.6902 19.3222 26.7342 14.4914 36.4031 14.4914C50.907 14.4914 52.72 25.3599 59.972 27.1713C64.807 28.3793 69.0368 26.5679 72.6629 21.7371C70.2459 31.3976 64.2018 36.2284 54.533 36.2284C40.029 36.2284 38.216 25.3599 30.9642 23.5485C26.1291 22.3405 21.8992 24.1519 18.2732 28.9827ZM0.143311 50.7198C2.56025 41.0592 8.60431 36.2284 18.2732 36.2284C32.7771 36.2284 34.5901 47.0969 41.8421 48.9084C46.6771 50.1163 50.907 48.3049 54.533 43.4741C52.116 53.1346 46.0719 57.9655 36.4031 57.9655C21.8992 57.9655 20.0861 47.0969 12.8343 45.2855C7.99921 44.0775 3.76929 45.8889 0.143311 50.7198Z" fill="#AA0000"/>
</g>
</g>
<defs>
<clipPath id="clip0_2103_811">
<rect width="73.0633" height="73" fill="white" transform="translate(0.0078125)"/>
</clipPath>
</defs>
</svg>
