<svg width="393" height="243" viewBox="0 0 393 243" fill="none" xmlns="http://www.w3.org/2000/svg">
    <g clip-path="url(#clip0_2101_620)">
        <path d="M39.668 222.651C41.2995 223.224 43.0512 223.368 44.7544 223.068C46.4576 222.768 48.0548 222.034 49.3922 220.938C52.7981 218.079 53.8662 213.371 54.7348 209.01L57.3048 196.111L51.9243 199.816C48.0548 202.48 44.0983 205.23 41.4193 209.089C38.7404 212.948 37.5716 218.216 39.7234 222.392" fill="#E6E6E6"/>
        <path d="M40.4988 239.165C39.8216 234.232 39.1248 229.234 39.601 224.247C40.0229 219.819 41.3741 215.494 44.125 211.946C45.5851 210.067 47.3618 208.457 49.3752 207.188C49.9001 206.857 50.3833 207.689 49.8607 208.019C46.3768 210.22 43.6822 213.472 42.1652 217.303C40.4898 221.564 40.2208 226.21 40.5094 230.736C40.6838 233.474 41.0545 236.193 41.4267 238.909C41.4561 239.032 41.4378 239.161 41.3754 239.271C41.313 239.381 41.2112 239.463 41.0907 239.501C40.9677 239.534 40.8366 239.517 40.7259 239.454C40.6151 239.391 40.5336 239.287 40.4991 239.165L40.4988 239.165Z" fill="#F2F2F2"/>
        <path d="M45.3732 231.249C46.0729 232.312 47.0347 233.178 48.166 233.762C49.2973 234.346 50.56 234.629 51.8323 234.583C55.1029 234.428 57.8284 232.146 60.2817 229.98L67.5395 223.571L62.7362 223.342C59.2819 223.176 55.7384 223.021 52.4483 224.087C49.1582 225.154 46.1239 227.716 45.5223 231.122" fill="#E6E6E6"/>
        <path d="M38.5845 242.002C41.8448 236.233 45.6262 229.822 52.3835 227.772C54.2622 227.204 56.2321 227.001 58.1872 227.173C58.8035 227.226 58.6496 228.176 58.0346 228.123C54.7573 227.851 51.4864 228.716 48.7724 230.573C46.1607 232.351 44.1272 234.823 42.4063 237.443C41.352 239.049 40.4077 240.722 39.4634 242.393C39.1617 242.928 38.2793 242.542 38.5845 242.002Z" fill="#F2F2F2"/>
        <path d="M366.325 229.519C365.376 230.368 364.225 230.959 362.982 231.235C361.739 231.511 360.446 231.461 359.228 231.092C356.106 230.106 354.054 227.204 352.236 224.482L346.857 216.431L351.559 217.437C354.941 218.16 358.407 218.915 361.315 220.787C364.223 222.659 366.502 225.912 366.213 229.358" fill="#E6E6E6"/>
        <path d="M370.14 241.65C368.462 235.239 366.445 228.074 360.436 224.366C358.765 223.337 356.912 222.637 354.978 222.303C354.369 222.197 354.275 223.155 354.883 223.261C358.121 223.836 361.062 225.508 363.211 227.997C365.282 230.383 366.616 233.293 367.61 236.266C368.219 238.088 368.704 239.947 369.19 241.804C369.345 242.397 370.297 242.25 370.14 241.65Z" fill="#F2F2F2"/>
        <path d="M304.069 147.776H194.144C193.266 147.775 192.425 147.425 191.804 146.805C191.183 146.184 190.834 145.342 190.833 144.465V107.381C190.834 106.503 191.183 105.662 191.804 105.041C192.425 104.42 193.266 104.071 194.144 104.07H304.069C304.947 104.071 305.789 104.42 306.409 105.041C307.03 105.662 307.379 106.503 307.38 107.381V144.465C307.379 145.342 307.03 146.184 306.409 146.805C305.789 147.425 304.947 147.775 304.069 147.776Z" fill="#F1F1F1"/>
        <path d="M237.187 114.003H208.05V117.314H237.187V114.003Z" fill="#AA0000"/>
        <path d="M275.595 117.977C276.692 117.977 277.581 117.087 277.581 115.99C277.581 114.893 276.692 114.003 275.595 114.003C274.498 114.003 273.608 114.893 273.608 115.99C273.608 117.087 274.498 117.977 275.595 117.977Z" fill="#AA0000"/>
        <path d="M282.217 117.977C283.314 117.977 284.203 117.087 284.203 115.99C284.203 114.893 283.314 114.003 282.217 114.003C281.12 114.003 280.23 114.893 280.23 115.99C280.23 117.087 281.12 117.977 282.217 117.977Z" fill="#AA0000"/>
        <path d="M288.839 117.977C289.936 117.977 290.825 117.087 290.825 115.99C290.825 114.893 289.936 114.003 288.839 114.003C287.742 114.003 286.852 114.893 286.852 115.99C286.852 117.087 287.742 117.977 288.839 117.977Z" fill="#AA0000"/>
        <path d="M304.069 194.792H194.144C193.266 194.791 192.425 194.442 191.804 193.821C191.183 193.2 190.834 192.359 190.833 191.481V154.398C190.834 153.52 191.183 152.678 191.804 152.057C192.425 151.437 193.266 151.088 194.144 151.087H304.069C304.947 151.088 305.789 151.437 306.409 152.057C307.03 152.678 307.379 153.52 307.38 154.398V191.481C307.379 192.359 307.03 193.2 306.409 193.821C305.789 194.442 304.947 194.791 304.069 194.792Z" fill="#F1F1F1"/>
        <path d="M237.187 161.02H208.05V164.331H237.187V161.02Z" fill="#AA0000"/>
        <path d="M275.595 164.993C276.692 164.993 277.581 164.103 277.581 163.006C277.581 161.909 276.692 161.02 275.595 161.02C274.498 161.02 273.608 161.909 273.608 163.006C273.608 164.103 274.498 164.993 275.595 164.993Z" fill="#AA0000"/>
        <path d="M282.217 164.993C283.314 164.993 284.203 164.103 284.203 163.006C284.203 161.909 283.314 161.02 282.217 161.02C281.12 161.02 280.23 161.909 280.23 163.006C280.23 164.103 281.12 164.993 282.217 164.993Z" fill="#AA0000"/>
        <path d="M288.839 164.993C289.936 164.993 290.825 164.103 290.825 163.006C290.825 161.909 289.936 161.02 288.839 161.02C287.742 161.02 286.852 161.909 286.852 163.006C286.852 164.103 287.742 164.993 288.839 164.993Z" fill="#AA0000"/>
        <path d="M304.069 241.808H194.144C193.266 241.807 192.425 241.458 191.804 240.837C191.183 240.216 190.834 239.375 190.833 238.497V201.414C190.834 200.536 191.183 199.694 191.804 199.074C192.425 198.453 193.266 198.104 194.144 198.103H304.069C304.947 198.104 305.789 198.453 306.409 199.074C307.03 199.694 307.379 200.536 307.38 201.414V238.497C307.379 239.375 307.03 240.216 306.409 240.837C305.789 241.458 304.947 241.807 304.069 241.808Z" fill="#F1F1F1"/>
        <path d="M237.187 208.036H208.05V211.347H237.187V208.036Z" fill="#AA0000"/>
        <path d="M275.595 212.009C276.692 212.009 277.581 211.12 277.581 210.022C277.581 208.925 276.692 208.036 275.595 208.036C274.498 208.036 273.608 208.925 273.608 210.022C273.608 211.12 274.498 212.009 275.595 212.009Z" fill="#AA0000"/>
        <path d="M282.217 212.009C283.314 212.009 284.203 211.12 284.203 210.022C284.203 208.925 283.314 208.036 282.217 208.036C281.12 208.036 280.23 208.925 280.23 210.022C280.23 211.12 281.12 212.009 282.217 212.009Z" fill="#AA0000"/>
        <path d="M288.839 212.009C289.936 212.009 290.825 211.12 290.825 210.022C290.825 208.925 289.936 208.036 288.839 208.036C287.742 208.036 286.852 208.925 286.852 210.022C286.852 211.12 287.742 212.009 288.839 212.009Z" fill="#AA0000"/>
        <path d="M262.629 67.8589L262.507 67.7691L262.504 67.7669C262.347 67.6504 262.169 67.566 261.98 67.5184C261.79 67.4709 261.593 67.4611 261.4 67.4896C261.207 67.5181 261.021 67.5844 260.854 67.6847C260.686 67.785 260.54 67.9174 260.423 68.0742L235.681 101.388H232.959V100.748C232.959 100.591 232.896 100.439 232.784 100.328C232.673 100.216 232.521 100.154 232.364 100.154H230.74C230.582 100.154 230.43 100.216 230.319 100.328C230.207 100.439 230.145 100.591 230.145 100.748V101.388H229.205V100.748C229.205 100.591 229.142 100.439 229.03 100.328C228.919 100.216 228.767 100.154 228.61 100.154H226.986C226.828 100.154 226.676 100.216 226.565 100.328C226.453 100.439 226.391 100.591 226.391 100.748V101.388H225.454V100.748C225.454 100.591 225.391 100.439 225.279 100.328C225.168 100.216 225.017 100.154 224.859 100.154H223.235C223.077 100.154 222.926 100.216 222.814 100.328C222.702 100.439 222.64 100.591 222.64 100.748V101.388H221.7V100.748C221.7 100.591 221.637 100.439 221.526 100.328C221.414 100.216 221.263 100.154 221.105 100.154H219.481C219.323 100.154 219.172 100.216 219.06 100.328C218.948 100.439 218.886 100.591 218.886 100.748V101.388H217.949V100.748C217.949 100.591 217.886 100.439 217.775 100.328C217.663 100.216 217.512 100.154 217.354 100.154H215.73C215.652 100.154 215.574 100.169 215.502 100.199C215.43 100.229 215.364 100.273 215.309 100.328C215.254 100.383 215.21 100.449 215.18 100.521C215.15 100.593 215.135 100.67 215.135 100.748V101.388H214.195V100.748C214.195 100.591 214.132 100.439 214.021 100.328C213.909 100.216 213.758 100.154 213.6 100.154H211.976C211.818 100.154 211.667 100.216 211.555 100.328C211.444 100.439 211.381 100.591 211.381 100.748V101.388H210.441V100.748C210.441 100.591 210.378 100.439 210.267 100.328C210.155 100.216 210.004 100.154 209.846 100.154H208.222C208.064 100.154 207.913 100.216 207.801 100.328C207.69 100.439 207.627 100.591 207.627 100.748V101.388H206.69V100.748C206.69 100.591 206.627 100.439 206.516 100.328C206.404 100.216 206.253 100.154 206.095 100.154H204.471C204.313 100.154 204.162 100.216 204.05 100.328C203.939 100.439 203.876 100.591 203.876 100.748V101.388H202.936V100.748C202.936 100.591 202.873 100.439 202.762 100.328C202.65 100.216 202.499 100.154 202.341 100.154H200.717C200.559 100.154 200.408 100.216 200.296 100.328C200.185 100.439 200.122 100.591 200.122 100.748V101.388H199.185V100.748C199.185 100.591 199.122 100.439 199.011 100.328C198.899 100.216 198.748 100.154 198.59 100.154H196.966C196.808 100.154 196.657 100.216 196.545 100.328C196.434 100.439 196.371 100.591 196.371 100.748V101.388H195.193C194.998 101.388 194.805 101.426 194.624 101.501C194.444 101.576 194.28 101.686 194.142 101.824C194.004 101.962 193.894 102.126 193.819 102.306C193.744 102.487 193.706 102.68 193.706 102.875V104.294C193.706 104.489 193.744 104.683 193.819 104.863C193.894 105.044 194.004 105.208 194.142 105.346C194.28 105.484 194.444 105.594 194.624 105.668C194.805 105.743 194.998 105.781 195.193 105.781H235.434C235.943 105.781 236.438 105.606 236.833 105.284C237.228 104.962 237.5 104.514 237.604 104.015L237.619 104.027L262.934 69.9426L262.936 69.9397C263.171 69.623 263.271 69.2259 263.213 68.8357C263.156 68.4455 262.945 68.0941 262.629 67.8589Z" fill="#3F3D56"/>
        <path d="M106.257 229.175L111.256 231.733L123.5 213.671L116.123 209.896L106.257 229.175Z" fill="#FFB7B7"/>
        <path d="M105.817 226.891L115.661 231.929L115.661 231.929C117.325 232.78 118.582 234.258 119.157 236.036C119.731 237.815 119.575 239.749 118.724 241.412L118.62 241.616L102.503 233.368L105.817 226.891Z" fill="#2F2E41"/>
        <path d="M163.986 236.173H169.601L172.272 214.516H163.985L163.986 236.173Z" fill="#FFB7B7"/>
        <path d="M162.554 234.34L173.611 234.34H173.612C175.481 234.34 177.273 235.082 178.595 236.404C179.916 237.725 180.659 239.517 180.659 241.386V241.615L162.554 241.616L162.554 234.34Z" fill="#2F2E41"/>
        <path d="M137.722 59.519C137.722 59.519 133.962 56.6383 133.962 63.6748L133.368 86.9274L139.997 108.894L143.856 101.769L142.273 86.3337L137.722 59.519Z" fill="#2F2E41"/>
        <path d="M177.943 123.119C177.943 123.119 182.303 144.353 176.78 161.778L173.728 228.778L162.537 227.906L158.613 178.201L154.834 153.494L146.986 176.021L121.116 223.692L109.199 214.39C109.199 214.39 122.405 178.355 132.162 170.789L137.055 115.058L177.943 123.119Z" fill="#2F2E41"/>
        <path d="M175.874 24.4901C179.254 18.3066 176.982 10.5536 170.798 7.17331C164.614 3.79307 156.861 6.06564 153.481 12.2492C150.101 18.4328 152.373 26.1858 158.557 29.566C164.741 32.9463 172.494 30.6737 175.874 24.4901Z" fill="#FFB7B7"/>
        <path d="M163.774 21.0761C165.304 21.2751 166.458 19.7101 166.993 18.2634C167.528 16.8167 167.936 15.1324 169.266 14.351C171.083 13.2833 173.407 14.5674 175.485 14.2152C177.832 13.8174 179.357 11.3306 179.477 8.95376C179.596 6.57688 178.65 4.29083 177.722 2.09937L177.398 4.82285C177.442 3.8998 177.247 2.98106 176.834 2.15452C176.421 1.32799 175.803 0.621296 175.038 0.102051L175.456 4.09834C175.367 3.547 175.17 3.01863 174.876 2.54356C174.583 2.06849 174.198 1.65608 173.745 1.32999C173.292 1.00389 172.778 0.770546 172.235 0.643334C171.691 0.516122 171.127 0.497551 170.576 0.588685L170.642 2.96983C167.932 2.64757 165.198 2.32486 162.48 2.57037C159.762 2.81588 157.025 3.67588 154.965 5.46597C151.883 8.14367 150.758 12.5528 151.135 16.6177C151.513 20.6826 153.191 24.5013 154.94 28.1902C155.38 29.1184 155.989 30.1657 157.009 30.2839C157.926 30.3901 158.765 29.6238 159.05 28.746C159.269 27.8454 159.261 26.9041 159.025 26.0076C158.767 24.6375 158.442 23.237 158.684 21.8641C158.927 20.4911 159.915 19.1344 161.299 18.9661C162.683 18.7979 164.099 20.3799 163.433 21.605L163.774 21.0761Z" fill="#2F2E41"/>
        <path d="M178.732 128.797L136.139 126.049L139.345 112.767L178.274 121.47L178.732 128.797Z" fill="#CBCBCB"/>
        <path d="M152.465 35.7717L155.136 32.0626C155.136 32.0626 158.122 33.0774 166.12 37.058L166.685 40.5331L180.566 125.913L155.334 124.824L148.463 124.678L146.215 119.638L143.442 124.571L136.732 124.428L129.905 120.471L136.633 99.8895L138.81 81.0895L135.446 63.378C135.446 63.378 131.213 47.1138 147.517 38.3443L152.465 35.7717Z" fill="#2F2E41"/>
        <path d="M209.335 100.404C208.717 100.561 208.072 100.581 207.446 100.462C206.82 100.343 206.227 100.088 205.71 99.7148C205.193 99.3418 204.764 98.8601 204.453 98.3034C204.142 97.7467 203.958 97.1287 203.912 96.4928L188.942 92.4833L194.964 87.1364L208.256 91.7637C209.329 91.7571 210.368 92.1445 211.175 92.8524C211.981 93.5604 212.5 94.5397 212.633 95.6048C212.766 96.6699 212.504 97.7468 211.896 98.6314C211.288 99.516 210.377 100.147 209.335 100.404Z" fill="#FFB7B7"/>
        <path d="M202.63 98.1409C202.316 98.3123 201.968 98.4156 201.611 98.4439C201.254 98.4723 200.894 98.4251 200.556 98.3055L175.931 88.9592C169.924 86.8296 164.894 82.5904 161.778 77.0301L151.509 58.7113C150.788 57.9064 150.233 56.9672 149.875 55.9474C149.517 54.9276 149.364 53.8473 149.425 52.7683C149.485 51.6893 149.757 50.6328 150.226 49.6592C150.695 48.6856 151.352 47.8141 152.158 47.0944C152.964 46.3748 153.905 45.8212 154.925 45.4654C155.945 45.1095 157.026 44.9584 158.105 45.0206C159.184 45.0828 160.24 45.3572 161.212 45.828C162.185 46.2988 163.056 46.9568 163.774 47.7643L181.548 75.9362L203.917 89.0505C204.355 89.3382 204.694 89.7535 204.889 90.2404C205.084 90.7273 205.124 91.2622 205.005 91.7729L203.893 96.4865C203.773 96.9919 203.503 97.4489 203.117 97.7966C202.969 97.9302 202.806 98.0457 202.63 98.1409Z" fill="#2F2E41"/>
        <path d="M392.584 242.556H0.415873C0.305577 242.556 0.199797 242.512 0.121806 242.434C0.0438148 242.356 0 242.25 0 242.14C0 242.03 0.0438148 241.924 0.121806 241.846C0.199797 241.768 0.305577 241.724 0.415873 241.724H392.584C392.694 241.724 392.8 241.768 392.878 241.846C392.956 241.924 393 242.03 393 242.14C393 242.25 392.956 242.356 392.878 242.434C392.8 242.512 392.694 242.556 392.584 242.556Z" fill="#CBCBCB"/>
    </g>
    <defs>
        <clipPath id="clip0_2101_620">
            <rect width="393" height="242.547" fill="white" transform="translate(0 0.102051)"/>
        </clipPath>
    </defs>
</svg>
