<svg viewBox="0 0 105.83 59.531" xmlns="http://www.w3.org/2000/svg">
    <g transform="translate(-30.182 -96.829)">
        <path d="m72.824 136-20.952 19.553-21.16-19.599 0.20228-38.46 20.688-0.13962 21.412 0.17777z" stroke-width=".11324"/>
    </g>
    <g transform="translate(-30.182 -96.829)">
        <path d="m51.889 98.122 20.338-0.02052-0.01303 37.577-20.297 18.77-20.284-18.806 0.01302-37.577z" fill="#a00" stroke-width=".11583"/>
        <g transform="matrix(.47521 0 0 .46307 -148.91 93.769)" fill="#a00" style="shape-inside:url(#rect7960);white-space:pre" aria-label="RED">
            <path d="m480.25 23.662q1.2695 0.42969 2.4609 1.8359 1.2109 1.4062 2.4219 3.8672l4.0039 7.9688h-4.2383l-3.7305-7.4805q-1.4453-2.9297-2.8125-3.8867-1.3477-0.95703-3.6914-0.95703h-4.2969v12.324h-3.9453v-29.16h8.9062q5 0 7.4609 2.0898 2.4609 2.0898 2.4609 6.3086 0 2.7539-1.2891 4.5703-1.2695 1.8164-3.7109 2.5195zm-9.8828-12.246v10.352h4.9609q2.8516 0 4.2969-1.3086 1.4648-1.3281 1.4648-3.8867 0-2.5586-1.4648-3.8477-1.4453-1.3086-4.2969-1.3086z"/>
            <path d="m494.21 8.1738h18.438v3.3203h-14.492v8.6328h13.887v3.3203h-13.887v10.566h14.844v3.3203h-18.789z"/>
            <path d="m523.43 11.416v22.676h4.7656q6.0352 0 8.8281-2.7344 2.8125-2.7344 2.8125-8.6328 0-5.8594-2.8125-8.5742-2.793-2.7344-8.8281-2.7344zm-3.9453-3.2422h8.1055q8.4766 0 12.441 3.5352 3.9648 3.5156 3.9648 11.016 0 7.5391-3.9844 11.074-3.9844 3.5352-12.422 3.5352h-8.1055z"/>
        </g>
        <text x="319.98975" y="262.3797" fill="#000000" font-family="sans-serif" font-size="10.583px" stroke-width=".26458" style="line-height:1.25" xml:space="preserve"><tspan x="319.98975" y="262.3797" stroke-width=".26458"/></text>
        <g transform="matrix(.37992 0 0 .4672 -103.2 49.667)" fill="#fc0" style="shape-inside:url(#rect53448);white-space:pre" aria-label="BANNER">
            <path d="m467.09 146.71v10.684h6.3281q3.1836 0 4.707-1.3086 1.543-1.3281 1.543-4.043 0-2.7344-1.543-4.0234-1.5234-1.3086-4.707-1.3086zm0-11.992v8.7891h5.8398q2.8906 0 4.2969-1.0742 1.4258-1.0938 1.4258-3.3203 0-2.207-1.4258-3.3008-1.4062-1.0938-4.2969-1.0938zm-3.9453-3.2422h10.078q4.5117 0 6.9531 1.875t2.4414 5.332q0 2.6758-1.25 4.2578-1.25 1.582-3.6719 1.9726 2.9102 0.625 4.5117 2.6172 1.6211 1.9727 1.6211 4.9414 0 3.9062-2.6562 6.0352-2.6562 2.1289-7.5586 2.1289h-10.469z"/>
            <path d="m500.33 135.36-5.3516 14.512h10.723zm-2.2266-3.8867h4.4726l11.113 29.16h-4.1016l-2.6562-7.4805h-13.145l-2.6562 7.4805h-4.1602z"/>
            <path d="m517.95 131.48h5.3125l12.93 24.395v-24.395h3.8281v29.16h-5.3125l-12.93-24.395v24.395h-3.8281z"/>
            <path d="m547.87 131.48h5.3125l12.93 24.395v-24.395h3.8281v29.16h-5.3125l-12.93-24.395v24.395h-3.8281z"/>
            <path d="m577.79 131.48h18.438v3.3203h-14.492v8.6328h13.887v3.3203h-13.887v10.566h14.844v3.3203h-18.789z"/>
            <path d="m616.89 146.96q1.2695 0.42969 2.4609 1.8359 1.2109 1.4062 2.4219 3.8672l4.0039 7.9688h-4.2383l-3.7305-7.4805q-1.4453-2.9297-2.8125-3.8867-1.3477-0.95703-3.6914-0.95703h-4.2969v12.324h-3.9453v-29.16h8.9062q5 0 7.4609 2.0898 2.4609 2.0898 2.4609 6.3086 0 2.7539-1.2891 4.5703-1.2695 1.8164-3.7109 2.5195zm-9.8828-12.246v10.352h4.9609q2.8516 0 4.2969-1.3086 1.4648-1.3281 1.4648-3.8867t-1.4648-3.8477q-1.4453-1.3086-4.2969-1.3086z"/>
        </g>
        <g transform="matrix(.38997 0 0 .38672 -109.23 29.103)" fill="#fff" style="shape-inside:url(#rect85675);white-space:pre" aria-label="MEDIA">
            <path d="m466.88 247.28h5.8789l7.4414 19.844 7.4805-19.844h5.8789v29.16h-3.8477v-25.605l-7.5195 20h-3.9648l-7.5195-20v25.605h-3.8281z"/>
            <path d="m501.39 247.28h18.438v3.3203h-14.492v8.6328h13.887v3.3203h-13.887v10.566h14.844v3.3203h-18.789z"/>
            <path d="m530.61 250.52v22.676h4.7656q6.0352 0 8.8281-2.7344 2.8125-2.7344 2.8125-8.6328 0-5.8594-2.8125-8.5742-2.793-2.7344-8.8281-2.7344zm-3.9453-3.2422h8.1055q8.4766 0 12.441 3.5352 3.9648 3.5156 3.9648 11.016 0 7.5391-3.9844 11.074-3.9844 3.5352-12.422 3.5352h-8.1055z"/>
            <path d="m557.46 247.28h3.9453v29.16h-3.9453z"/>
            <path d="m579.01 251.16-5.3516 14.512h10.723zm-2.2266-3.8867h4.4726l11.113 29.16h-4.1016l-2.6562-7.4805h-13.145l-2.6562 7.4805h-4.1602z"/>
        </g>
        <path d="m70.417 100.13 1.7839 1.0121-32.801 41.752-1.6705-1.5889z" fill="#fff" stroke-width=".08683"/>
        <path d="m31.65 98.056 40.577 0.04516-0.0046 3.1946-40.572-0.16333z" fill="#fc0" stroke-width=".091768"/>
        <path d="m44.657 123.73h-2.4868l-6.6398-6.1142 6.6398-6.1141h2.4868l-6.5947 6.0928z" fill="#fff" stroke-width=".091465"/>
        <path d="m60.881 135.21h2.4868l6.6398-6.1141-6.6398-6.1141h-2.4868l6.5947 6.0928z" fill="#fff" stroke-width=".091465"/>
    </g>
</svg>
