<svg width="32" height="55" viewBox="0 0 32 55" fill="none" xmlns="http://www.w3.org/2000/svg">
    <g clip-path="url(#clip0_2103_731)">
        <mask id="mask0_2103_731" style="mask-type:luminance" maskUnits="userSpaceOnUse" x="0" y="0" width="32" height="55">
            <path d="M31.0529 0H0.026001V55H31.0529V0Z" fill="white"/>
        </mask>
        <g mask="url(#mask0_2103_731)">
            <path d="M23.3548 0.26158C22.495 0.770382 21.0672 2.2122 19.3618 4.30076L20.9284 7.26768C22.0281 5.68923 23.1447 4.26953 24.2717 3.05673C24.3585 2.96044 24.4039 2.9149 24.4039 2.9149C24.3598 2.96174 24.3158 3.00989 24.2717 3.05673C23.9073 3.46013 22.8011 4.75491 21.132 7.32623C22.7388 7.24556 25.208 6.91633 27.222 6.57019C27.8211 3.20248 26.6345 1.66046 26.6345 1.66046C26.6345 1.66046 25.1263 -0.788555 23.3548 0.26158Z" fill="url(#paint0_linear_2103_731)"/>
            <path d="M18.0935 25.1776C17.8937 25.214 17.6875 25.2492 17.4762 25.2856C17.4749 25.2856 17.4736 25.2869 17.4723 25.2869C17.5786 25.2713 17.6836 25.2557 17.7874 25.2375C17.8912 25.2192 17.9923 25.1997 18.0935 25.1776Z" fill="#BE202E"/>
            <path opacity="0.35" d="M18.0935 25.1776C17.8937 25.214 17.6875 25.2492 17.4762 25.2856C17.4749 25.2856 17.4736 25.2869 17.4723 25.2869C17.5786 25.2713 17.6836 25.2557 17.7874 25.2375C17.8912 25.2192 17.9923 25.1997 18.0935 25.1776Z" fill="#BE202E"/>
            <path d="M18.6176 22.5841C18.6176 22.5841 18.6163 22.5841 18.6163 22.5854C18.6151 22.5854 18.6151 22.5867 18.6138 22.5867C18.6475 22.5828 18.6799 22.5763 18.7123 22.5724C18.8459 22.5529 18.9768 22.5294 19.1039 22.5021C18.9445 22.5281 18.7823 22.5568 18.6176 22.5841Z" fill="#BE202E"/>
            <path opacity="0.35" d="M18.6176 22.5841C18.6176 22.5841 18.6163 22.5841 18.6163 22.5854C18.6151 22.5854 18.6151 22.5867 18.6138 22.5867C18.6475 22.5828 18.6799 22.5763 18.7123 22.5724C18.8459 22.5529 18.9768 22.5294 19.1039 22.5021C18.9445 22.5281 18.7823 22.5568 18.6176 22.5841Z" fill="#BE202E"/>
            <path d="M16.3105 14.9334C16.7864 14.0407 17.2689 13.1676 17.7564 12.3178C18.2622 11.4356 18.7745 10.5793 19.2919 9.75428C19.3218 9.70614 19.3529 9.6567 19.3827 9.60726C19.8937 8.79527 20.4098 8.01451 20.9299 7.26757L19.3632 4.30063C19.2453 4.44507 19.1272 4.59212 19.0067 4.74176C18.5553 5.30652 18.0859 5.91422 17.6048 6.55837C17.0627 7.28448 16.505 8.06004 15.9383 8.87333C15.4157 9.62547 14.8853 10.4127 14.3548 11.2273C13.9036 11.9209 13.4497 12.6353 12.9997 13.368C12.9828 13.3953 12.966 13.4226 12.9491 13.4499L14.9877 17.4904C15.4235 16.6251 15.8644 15.7715 16.3105 14.9334Z" fill="url(#paint1_linear_2103_731)"/>
            <path d="M7.02519 37.6999C6.75543 38.4443 6.48438 39.2016 6.21205 39.9759C6.20813 39.9876 6.20426 39.998 6.2004 40.0097C6.16147 40.119 6.12388 40.2283 6.08495 40.3376C5.90207 40.8594 5.74259 41.3292 5.37817 42.3975C5.97858 42.6721 6.46102 43.3956 6.91753 44.2167C6.86952 43.367 6.5181 42.568 5.85281 41.9499C8.8135 42.0839 11.3644 41.3331 12.6833 39.1613C12.8013 38.9674 12.9089 38.7643 13.0062 38.5471C12.4071 39.3096 11.6639 39.6336 10.2647 39.5543C12.324 38.629 13.3576 37.7416 14.2706 36.2698C14.4871 35.9211 14.6973 35.5398 14.9125 35.1169C13.1113 36.9725 11.0246 37.5008 8.82644 37.1L7.17821 37.2809C7.12629 37.4201 7.07571 37.5594 7.02519 37.6999Z" fill="url(#paint2_linear_2103_731)"/>
            <path d="M7.79405 33.9952C8.15069 33.0713 8.51768 32.137 8.89375 31.1935C9.25431 30.2905 9.62517 29.3821 10.0039 28.4687C10.3825 27.5551 10.7703 26.6403 11.1659 25.7242C11.5679 24.7925 11.9789 23.8621 12.3965 22.9369C12.8102 22.0221 13.2317 21.1112 13.6597 20.2094C13.814 19.8841 13.9696 19.5601 14.1252 19.2373C14.395 18.6791 14.6673 18.1261 14.9422 17.5782C14.9565 17.5483 14.972 17.5196 14.9876 17.4897L12.949 13.4492C12.9152 13.5039 12.8829 13.5586 12.8491 13.6132C12.3745 14.3914 11.9011 15.1878 11.4369 16.001C10.9674 16.8221 10.507 17.6589 10.057 18.5073C9.67703 19.223 9.30617 19.9453 8.94562 20.674C8.87303 20.8223 8.80172 20.968 8.73036 21.1151C8.28557 22.0325 7.88485 22.9187 7.52172 23.771C7.11064 24.7366 6.7488 25.6592 6.43238 26.5336C6.22357 27.1088 6.03425 27.6644 5.86047 28.198C5.71781 28.6534 5.58165 29.1101 5.45326 29.5643C5.1485 30.6352 4.88654 31.7036 4.67126 32.7681L6.72029 36.8268C6.99134 36.1006 7.26882 35.3654 7.55415 34.6198C7.63324 34.4129 7.71368 34.2034 7.79405 33.9952Z" fill="url(#paint3_linear_2103_731)"/>
            <path d="M4.64404 32.9124C4.38727 34.2111 4.20441 35.5046 4.11234 36.7903C4.10975 36.8358 4.10456 36.8801 4.10196 36.9256C3.46262 35.8976 1.7508 34.8943 1.75469 34.9034C2.9802 36.6861 3.91003 38.4559 4.04879 40.1931C3.39259 40.3284 2.49388 40.1333 1.45512 39.7494C2.53798 40.7474 3.3511 41.0233 3.66752 41.0975C2.67285 41.1599 1.63668 41.8457 0.592719 42.6356C2.1191 42.011 3.35239 41.7638 4.23554 41.9642C2.83495 45.9435 1.43048 50.3366 0.026001 55.0004C0.456551 54.8729 0.713328 54.5827 0.857275 54.1897C1.10756 53.3452 2.76882 47.8044 5.37157 40.5211C5.44549 40.3141 5.52071 40.106 5.59592 39.8964C5.61667 39.8379 5.63872 39.7793 5.65947 39.7221C5.93439 38.9582 6.21972 38.1787 6.51407 37.3836C6.58151 37.2028 6.64895 37.0219 6.71639 36.8397C6.71768 36.8358 6.71896 36.8319 6.72031 36.8293L4.67387 32.7719C4.66479 32.8174 4.65312 32.8643 4.64404 32.9124Z" fill="url(#paint4_linear_2103_731)"/>
            <path d="M15.3042 17.8319C15.2459 17.9517 15.1875 18.0727 15.1278 18.195C14.9514 18.5606 14.7725 18.9328 14.5909 19.3141C14.3951 19.7266 14.198 20.1482 13.9983 20.5803C13.8971 20.7975 13.7973 21.0162 13.6948 21.2387C13.3901 21.9036 13.0814 22.5907 12.7676 23.2999C12.3824 24.1718 11.9895 25.0775 11.5914 26.0183C11.2114 26.9149 10.8262 27.8427 10.4359 28.8031C10.0649 29.7139 9.69017 30.6548 9.31024 31.6243C8.97175 32.4896 8.63069 33.377 8.28571 34.2906C8.26885 34.3348 8.25199 34.379 8.23641 34.4233C7.89407 35.3303 7.54908 36.262 7.20158 37.2172C7.19379 37.2393 7.18601 37.2614 7.17822 37.2822L8.82651 37.1013C8.79408 37.0948 8.76036 37.0909 8.72793 37.0844C10.6991 36.8385 13.3187 35.3602 15.0124 33.5358C15.7931 32.6952 16.5012 31.7036 17.1561 30.5429C17.6437 29.6788 18.1015 28.7211 18.5372 27.6605C18.9185 26.734 19.2842 25.7307 19.637 24.6429C19.1843 24.8823 18.6656 25.058 18.0937 25.1803C17.9938 25.2011 17.8914 25.2219 17.7877 25.2401C17.6839 25.2583 17.5788 25.2752 17.4725 25.2896C17.4738 25.2896 17.4751 25.2883 17.4764 25.2883C19.3141 24.5791 20.4734 23.2088 21.3163 21.5315C20.8326 21.862 20.0468 22.2953 19.1052 22.5035C18.9769 22.5322 18.8458 22.5543 18.7136 22.5738C18.6799 22.579 18.6474 22.5842 18.615 22.5881C18.6163 22.5881 18.6163 22.5868 18.6177 22.5868C18.6177 22.5868 18.6189 22.5868 18.6189 22.5855C19.257 22.3175 19.7951 22.0182 20.262 21.6642C20.3619 21.5888 20.4591 21.5106 20.5525 21.4287C20.6952 21.3051 20.83 21.1749 20.9597 21.0383C21.0427 20.9511 21.1231 20.8613 21.201 20.7676C21.3838 20.549 21.555 20.3135 21.7158 20.0571C21.7651 19.979 21.8131 19.8997 21.861 19.8177C21.922 19.6993 21.9803 19.5835 22.0374 19.469C22.2942 18.951 22.4991 18.4891 22.6624 18.0831C22.7442 17.8801 22.8155 17.6927 22.8765 17.5184C22.9011 17.4493 22.9244 17.3817 22.9465 17.3166C23.0113 17.1214 23.0645 16.9484 23.106 16.7961C23.1682 16.5684 23.2058 16.3875 23.2266 16.2561C23.1644 16.3055 23.093 16.355 23.0126 16.4032C22.4575 16.7362 21.5057 17.0381 20.738 17.18C20.7263 17.1826 20.7146 17.1839 20.7029 17.1865C20.6264 17.1995 20.5486 17.2112 20.4708 17.2243C20.4851 17.2177 20.4968 17.2112 20.511 17.206L15.3327 17.776C15.3237 17.7942 15.3146 17.8124 15.3042 17.8319Z" fill="url(#paint5_linear_2103_731)"/>
            <path d="M21.1334 7.32798C20.6729 8.03719 20.1698 8.84267 19.629 9.7549C19.6005 9.80174 19.572 9.85118 19.5434 9.89932C19.0766 10.6892 18.5799 11.5559 18.0585 12.5058C17.6073 13.3256 17.1378 14.2053 16.6502 15.1513C16.2248 15.975 15.7852 16.8495 15.3339 17.7747L20.5121 17.2047C22.0204 16.5085 22.6947 15.8787 23.3496 14.9678C23.5234 14.7167 23.6985 14.4538 23.8723 14.1819C24.404 13.349 24.9253 12.4316 25.3922 11.5194C25.8422 10.6385 26.239 9.76531 26.5438 8.97804C26.737 8.47701 26.8926 8.01117 27.0003 7.60257C27.0949 7.24211 27.1689 6.89987 27.2259 6.57324C25.2093 6.91809 22.7402 7.24862 21.1334 7.32798Z" fill="url(#paint6_linear_2103_731)"/>
            <path d="M18.6123 22.5868C18.646 22.5829 18.6784 22.5764 18.7108 22.5724C18.6784 22.5764 18.646 22.5816 18.6123 22.5868Z" fill="#BE202E"/>
            <path opacity="0.35" d="M18.6123 22.5868C18.646 22.5829 18.6784 22.5764 18.7108 22.5724C18.6784 22.5764 18.646 22.5816 18.6123 22.5868Z" fill="#BE202E"/>
            <path d="M18.6123 22.5868C18.646 22.5829 18.6784 22.5764 18.7108 22.5724C18.6784 22.5764 18.646 22.5816 18.6123 22.5868Z" fill="url(#paint7_linear_2103_731)"/>
            <path d="M18.616 22.5852C18.616 22.5852 18.617 22.5852 18.617 22.5841C18.617 22.5841 18.616 22.5841 18.616 22.5852Z" fill="#BE202E"/>
            <path opacity="0.35" d="M18.616 22.5852C18.616 22.5852 18.617 22.5852 18.617 22.5841C18.617 22.5841 18.616 22.5841 18.616 22.5852Z" fill="#BE202E"/>
            <path d="M18.616 22.5852C18.616 22.5852 18.617 22.5852 18.617 22.5841C18.617 22.5841 18.616 22.5841 18.616 22.5852Z" fill="url(#paint8_linear_2103_731)"/>
            <path d="M28.799 5.03641V5.18866H29.1543V6.19585H29.319V5.18866H29.6769V5.03641H28.799ZM30.8519 5.03641L30.455 5.84581L30.0556 5.03641H29.8572V6.19585H30.0089V5.27585L30.4019 6.07355H30.5069L30.8998 5.27585V6.19585H31.0516V5.03641H30.8519Z" fill="#6D6E71"/>
        </g>
    </g>
    <defs>
        <linearGradient id="paint0_linear_2103_731" x1="20.6896" y1="4.66417" x2="32.1715" y2="1.48276" gradientUnits="userSpaceOnUse">
            <stop stop-color="#F69923"/>
            <stop offset="0.3123" stop-color="#F79A23"/>
            <stop offset="0.8383" stop-color="#E97826"/>
        </linearGradient>
        <linearGradient id="paint1_linear_2103_731" x1="-4.42972" y1="56.347" x2="19.0437" y2="6.17836" gradientUnits="userSpaceOnUse">
            <stop offset="0.3233" stop-color="#9E2064"/>
            <stop offset="0.6302" stop-color="#C92037"/>
            <stop offset="0.7514" stop-color="#CD2335"/>
            <stop offset="1" stop-color="#E97826"/>
        </linearGradient>
        <linearGradient id="paint2_linear_2103_731" x1="3.40879" y1="52.6333" x2="17.3967" y2="22.7376" gradientUnits="userSpaceOnUse">
            <stop stop-color="#282662"/>
            <stop offset="0.0954839" stop-color="#662E8D"/>
            <stop offset="0.7882" stop-color="#9F2064"/>
            <stop offset="0.9487" stop-color="#CD2032"/>
        </linearGradient>
        <linearGradient id="paint3_linear_2103_731" x1="-3.58529" y1="53.3081" x2="19.8881" y2="3.13949" gradientUnits="userSpaceOnUse">
            <stop offset="0.3233" stop-color="#9E2064"/>
            <stop offset="0.6302" stop-color="#C92037"/>
            <stop offset="0.7514" stop-color="#CD2335"/>
            <stop offset="1" stop-color="#E97826"/>
        </linearGradient>
        <linearGradient id="paint4_linear_2103_731" x1="-1.20565" y1="49.9617" x2="11.1304" y2="23.5965" gradientUnits="userSpaceOnUse">
            <stop stop-color="#282662"/>
            <stop offset="0.0954839" stop-color="#662E8D"/>
            <stop offset="0.7882" stop-color="#9F2064"/>
            <stop offset="0.9487" stop-color="#CD2032"/>
        </linearGradient>
        <linearGradient id="paint5_linear_2103_731" x1="1.59576" y1="55.7322" x2="25.0691" y2="5.56356" gradientUnits="userSpaceOnUse">
            <stop offset="0.3233" stop-color="#9E2064"/>
            <stop offset="0.6302" stop-color="#C92037"/>
            <stop offset="0.7514" stop-color="#CD2335"/>
            <stop offset="1" stop-color="#E97826"/>
        </linearGradient>
        <linearGradient id="paint6_linear_2103_731" x1="-0.10964" y1="58.7278" x2="23.3637" y2="8.55912" gradientUnits="userSpaceOnUse">
            <stop offset="0.3233" stop-color="#9E2064"/>
            <stop offset="0.6302" stop-color="#C92037"/>
            <stop offset="0.7514" stop-color="#CD2335"/>
            <stop offset="1" stop-color="#E97826"/>
        </linearGradient>
        <linearGradient id="paint7_linear_2103_731" x1="2.97305" y1="56.4719" x2="26.5742" y2="6.22197" gradientUnits="userSpaceOnUse">
            <stop offset="0.3233" stop-color="#9E2064"/>
            <stop offset="0.6302" stop-color="#C92037"/>
            <stop offset="0.7514" stop-color="#CD2335"/>
            <stop offset="1" stop-color="#E97826"/>
        </linearGradient>
        <linearGradient id="paint8_linear_2103_731" x1="16.4757" y1="27.1529" x2="20.722" y2="17.9986" gradientUnits="userSpaceOnUse">
            <stop offset="0.3233" stop-color="#9E2064"/>
            <stop offset="0.6302" stop-color="#C92037"/>
            <stop offset="0.7514" stop-color="#CD2335"/>
            <stop offset="1" stop-color="#E97826"/>
        </linearGradient>
        <clipPath id="clip0_2103_731">
            <rect width="31.0269" height="55" fill="white" transform="translate(0.026001)"/>
        </clipPath>
    </defs>
</svg>
