<svg width="69" height="53" viewBox="0 0 69 53" fill="none" xmlns="http://www.w3.org/2000/svg">
    <g clip-path="url(#clip0_2103_725)">
        <path d="M37.6865 23.9354H30.6875V17.1772H37.6865V23.9354ZM37.6865 0.691284H30.6875V7.59738H37.6865V0.691284ZM45.9666 17.1658H38.9677V23.924H45.9666V17.1658ZM29.4169 8.9627H22.4179V15.8005H29.4169V8.9627ZM37.6865 8.9627H30.6875V15.8005H37.6865V8.9627ZM66.9953 20.3402C65.4706 19.2365 61.9552 18.8383 59.2551 19.3844C58.9057 16.6539 57.4868 14.2759 54.9033 12.137L53.4209 11.0789L52.4362 12.6718C50.4879 15.8347 49.9585 21.0455 52.0444 24.4815C51.1232 25.0163 49.3126 25.7444 46.9196 25.6989H0.891673C-0.0295216 31.4786 1.5058 38.9877 5.55059 44.1418C9.47889 49.1364 15.366 51.6736 23.0638 51.6736C39.73 51.6736 52.0656 43.425 57.8363 28.4409C60.1022 28.4864 64.9941 28.4522 67.5035 23.2983C67.6624 23.0138 68.2024 21.7965 68.4035 21.3527L66.9953 20.3402ZM12.8778 17.1658H5.88942V23.924H12.8884V17.1658H12.8778ZM21.1474 17.1658H14.1484V23.924H21.1474V17.1658ZM29.4169 17.1658H22.4179V23.924H29.4169V17.1658ZM21.1474 8.9627H14.1484V15.8005H21.1474V8.9627Z" fill="#AA0000"/>
    </g>
    <defs>
        <clipPath id="clip0_2103_725">
            <rect width="67.766" height="52.3535" fill="white" transform="translate(0.637695)"/>
        </clipPath>
    </defs>
</svg>
