<svg width="53" height="52" viewBox="0 0 53 52" fill="none" xmlns="http://www.w3.org/2000/svg">
<g clip-path="url(#clip0_2103_715)">
<mask id="mask0_2103_715" style="mask-type:luminance" maskUnits="userSpaceOnUse" x="0" y="0" width="53" height="52">
<path d="M52.0607 0H0.015625V52H52.0607V0Z" fill="white"/>
</mask>
<g mask="url(#mask0_2103_715)">
<path d="M34.3915 19.4588H24.4422V0H34.3915C39.7608 0 44.1283 4.36367 44.1283 9.7283C44.1283 15.093 39.7608 19.4588 34.3915 19.4588ZM27.6321 16.2717H34.3915C38.0021 16.2717 40.9383 13.3358 40.9383 9.73051C40.9383 6.12518 37.9999 3.18933 34.3915 3.18933H27.6321V16.2717ZM27.6321 19.4588H17.685C12.3157 19.4588 7.94826 15.0952 7.94826 9.73051C7.94826 4.36584 12.3157 0 17.685 0H27.6343V19.4588H27.6321ZM17.685 3.18716C14.0744 3.18716 11.1381 6.12297 11.1381 9.7283C11.1381 13.3336 14.0744 16.2717 17.685 16.2717H24.4443V3.18716H17.685ZM27.6321 35.7283H17.685C12.3157 35.7283 7.94826 31.3647 7.94826 26C7.94826 20.6353 12.3157 16.2717 17.685 16.2717H27.6343V35.7283H27.6321ZM17.685 19.4588C14.0744 19.4588 11.1381 22.3947 11.1381 26C11.1381 29.6053 14.0765 32.5412 17.685 32.5412H24.4443V19.4588H17.685ZM17.737 52C12.3395 52 7.94604 47.6364 7.94604 42.2717C7.94604 36.907 12.3135 32.5433 17.6828 32.5433H27.6321V42.1655C27.6321 47.5887 23.1931 52 17.737 52ZM17.685 35.7283C15.9494 35.7306 14.2855 36.4205 13.0582 37.6467C11.8309 38.8729 11.1405 40.5354 11.1381 42.2695C11.1381 45.877 14.0983 48.8107 17.7392 48.8107C21.4366 48.8107 24.4465 45.8293 24.4465 42.1633V35.7283H17.685ZM34.3915 35.7283H34.179C28.8097 35.7283 24.4422 31.3647 24.4422 26C24.4422 20.6353 28.8097 16.2717 34.179 16.2717H34.3915C39.7608 16.2717 44.1283 20.6353 44.1283 26C44.1283 31.3647 39.7608 35.7283 34.3915 35.7283ZM34.1811 19.4588C30.5705 19.4588 27.6343 22.3947 27.6343 26C27.6343 29.6053 30.5727 32.5412 34.1811 32.5412H34.3936C38.0043 32.5412 40.9405 29.6053 40.9405 26C40.9405 22.3947 37.9999 19.4588 34.3915 19.4588H34.1811Z" fill="#AA0000"/>
</g>
</g>
<defs>
<clipPath id="clip0_2103_715">
<rect width="52.0451" height="52" fill="white" transform="translate(0.015625)"/>
</clipPath>
</defs>
</svg>
