<svg width="51" height="51" viewBox="0 0 51 51" fill="none" xmlns="http://www.w3.org/2000/svg">
    <g clip-path="url(#clip0_2103_768)">
        <path d="M49.1113 23.2789L27.2732 1.44228C26.6685 0.838626 25.8486 0.499542 24.9938 0.499542C24.1391 0.499542 23.3192 0.838626 22.7145 1.44228L18.1727 5.97701L23.9277 11.7272C26.9503 10.707 29.8122 13.5989 28.7745 16.6023L34.3217 22.1449C38.1453 20.8279 41.1557 25.6048 38.2838 28.4721C35.3248 31.4287 30.4411 28.1518 32.0284 24.3046L26.8487 19.1381V32.7323C29.6748 34.1319 29.3352 37.4031 27.863 38.8708C27.1437 39.5891 26.1683 39.9927 25.1514 39.9927C24.1344 39.9927 23.159 39.5891 22.4398 38.8708C20.4771 36.9065 21.2032 33.6352 23.6964 32.6206V18.8926C21.373 17.9428 20.9485 15.4617 21.6142 13.8701L15.9464 8.2003L0.961318 23.1673C0.35689 23.7713 0.017334 24.5905 0.017334 25.4447C0.017334 26.2989 0.35689 27.118 0.961318 27.7221L22.8106 49.5531C23.4151 50.1567 24.2347 50.4957 25.0894 50.4957C25.944 50.4957 26.7636 50.1567 27.3681 49.5531L49.1169 27.8225C49.7213 27.2185 50.0608 26.3993 50.0608 25.5451C50.0608 24.6909 49.7213 23.8717 49.1169 23.2677L49.1113 23.2789Z" fill="#AA0000"/>
    </g>
    <defs>
        <clipPath id="clip0_2103_768">
            <rect width="50.0433" height="51" fill="white" transform="translate(0.017334)"/>
        </clipPath>
    </defs>
</svg>
