<svg width="52" height="51" viewBox="0 0 52 51" fill="none" xmlns="http://www.w3.org/2000/svg">
    <g clip-path="url(#clip0_2103_773)">
        <path d="M44.496 0.192993H5.35403C2.40725 0.192993 0.0164795 2.55657 0.0164795 5.46985V44.1668C0.0164795 47.0801 2.40725 49.4435 5.35403 49.4435H44.496C47.4428 49.4435 49.8337 47.0801 49.8337 44.1668V5.46985C49.8337 2.55657 47.4428 0.192993 44.496 0.192993ZM30.8519 42.3747C29.918 42.5397 29.5732 41.9681 29.5732 41.4954C29.5732 40.9016 29.5954 37.8675 29.5954 35.416C29.5954 33.701 29.0172 32.6125 28.3389 32.0409C32.4533 31.5902 36.7901 31.0296 36.7901 24.0047C36.7901 22.004 36.0672 21.0036 34.8885 19.7174C35.0776 19.2446 35.7113 17.2988 34.6994 14.7703C33.1538 14.2976 29.6176 16.7381 29.6176 16.7381C28.1499 16.3314 26.5597 16.1225 24.9918 16.1225C23.424 16.1225 21.8338 16.3314 20.3658 16.7381C20.3658 16.7381 16.8298 14.2976 15.2841 14.7703C14.2722 17.2878 14.8949 19.2336 15.0951 19.7174C13.9164 21.0036 13.3604 22.004 13.3604 24.0047C13.3604 30.9966 17.5081 31.5902 21.6225 32.0409C21.0887 32.5137 20.6105 33.3271 20.4438 34.4925C19.3874 34.9652 16.6852 35.7787 15.0728 32.9644C14.0609 31.2275 12.2372 31.0845 12.2372 31.0845C10.4358 31.0625 12.1149 32.2059 12.1149 32.2059C13.3159 32.7555 14.161 34.8663 14.161 34.8663C15.2396 38.1313 20.3992 37.0319 20.3992 37.0319C20.3992 38.5601 20.4216 41.0446 20.4216 41.4954C20.4216 41.9681 20.0878 42.5397 19.1427 42.3747C11.8036 39.9452 6.66618 33.0413 6.66618 24.9722C6.66618 14.8802 14.4724 7.21779 24.6804 7.21779C34.8885 7.21779 43.1618 14.8802 43.1618 24.9722C43.1728 33.0413 38.1911 39.9562 30.8519 42.3747ZM19.9433 35.6578C19.7321 35.7018 19.5319 35.6139 19.5097 35.4709C19.4874 35.3059 19.632 35.1631 19.8432 35.1192C20.0545 35.0972 20.2547 35.1851 20.2769 35.3281C20.3103 35.4709 20.1658 35.6139 19.9433 35.6578ZM18.8869 35.5588C18.8869 35.7018 18.7202 35.8228 18.4978 35.8228C18.2531 35.8448 18.0863 35.7237 18.0863 35.5588C18.0863 35.416 18.2531 35.2949 18.4755 35.2949C18.6868 35.273 18.8869 35.394 18.8869 35.5588ZM17.3635 35.4379C17.319 35.5809 17.0967 35.6468 16.9076 35.5809C16.6963 35.5368 16.5518 35.372 16.5963 35.229C16.6407 35.0862 16.8631 35.0201 17.0522 35.0641C17.2746 35.1302 17.4191 35.2949 17.3635 35.4379ZM15.9958 34.8444C15.8957 34.9652 15.6844 34.9432 15.5176 34.7783C15.3508 34.6355 15.3064 34.4266 15.4176 34.3275C15.5176 34.2067 15.7289 34.2287 15.8957 34.3936C16.0403 34.5364 16.0959 34.7563 15.9958 34.8444ZM14.9839 33.8438C14.8838 33.9099 14.6947 33.8438 14.5724 33.679C14.4501 33.5141 14.4501 33.3271 14.5724 33.2502C14.6947 33.1514 14.8838 33.2283 14.9839 33.3932C15.1062 33.558 15.1062 33.7559 14.9839 33.8438ZM14.2611 32.7775C14.161 32.8764 13.9942 32.8214 13.8719 32.7116C13.7496 32.5686 13.7273 32.4038 13.8274 32.3267C13.9275 32.2279 14.0943 32.2828 14.2166 32.3928C14.3389 32.5356 14.3612 32.7006 14.2611 32.7775ZM13.516 31.9641C13.4716 32.0629 13.327 32.0849 13.2047 32.008C13.0601 31.9421 12.9934 31.8211 13.0379 31.7222C13.0824 31.6563 13.2047 31.6231 13.3492 31.6783C13.4938 31.7552 13.5605 31.876 13.516 31.9641Z" fill="#AA0000"/>
    </g>
    <defs>
        <clipPath id="clip0_2103_773">
            <rect width="51.0442" height="51" fill="white" transform="translate(0.0164795)"/>
        </clipPath>
    </defs>
</svg>
