<svg width="51" height="50" viewBox="0 0 51 50" fill="none" xmlns="http://www.w3.org/2000/svg">
    <g clip-path="url(#clip0_2103_700)">
        <mask id="mask0_2103_700" style="mask-type:luminance" maskUnits="userSpaceOnUse" x="0" y="0" width="51" height="50">
            <path d="M50.0615 0H0.0181885V50H50.0615V0Z" fill="white"/>
        </mask>
        <g mask="url(#mask0_2103_700)">
            <path d="M6.50856 45.9753L4.96164 4.79156C4.91055 3.43143 5.95438 2.2787 7.31393 2.19383L42.3735 0.00448232C43.7574 -0.0819398 44.9494 0.968898 45.0359 2.35163C45.0392 2.40372 45.0408 2.4559 45.0408 2.5081V47.3847C45.0408 48.7701 43.9168 49.8932 42.5301 49.8932C42.4926 49.8932 42.455 49.8924 42.4175 49.8907L8.90473 48.3869C7.59957 48.3283 6.55756 47.2798 6.50856 45.9753Z" fill="#AA0000"/>
            <mask id="mask1_2103_700" style="mask-type:luminance" maskUnits="userSpaceOnUse" x="4" y="-1" width="42" height="51">
                <path d="M6.50856 45.9753L4.96164 4.79156C4.91055 3.43143 5.95438 2.2787 7.31393 2.19383L42.3735 0.00448232C43.7574 -0.0819398 44.9494 0.968898 45.0359 2.35163C45.0392 2.40372 45.0408 2.4559 45.0408 2.5081V47.3847C45.0408 48.7701 43.9168 49.8932 42.5301 49.8932C42.4926 49.8932 42.455 49.8924 42.4175 49.8907L8.90473 48.3869C7.59957 48.3283 6.55756 47.2798 6.50856 45.9753Z" fill="white"/>
            </mask>
            <g mask="url(#mask1_2103_700)">
                <path d="M34.5572 6.13272L34.7967 0.377913L39.6115 -6.10352e-05L39.8188 5.93461C39.8261 6.14116 39.6644 6.31444 39.4576 6.32165C39.3691 6.32474 39.2824 6.29639 39.2128 6.24163L37.3561 4.7802L35.1577 6.4463C34.993 6.57123 34.758 6.53896 34.633 6.37432C34.5804 6.30501 34.5536 6.21964 34.5572 6.13272ZM28.3995 18.8054C28.3995 19.7814 34.9793 19.3136 35.8625 18.6281C35.8625 11.982 32.2933 8.4898 25.7576 8.4898C19.2221 8.4898 15.5599 12.0366 15.5599 17.3567C15.5599 26.6229 28.0752 26.8002 28.0752 31.8541C28.0752 33.2728 27.3799 34.1152 25.8503 34.1152C23.857 34.1152 23.069 33.0981 23.1618 29.64C23.1618 28.8898 15.5597 28.656 15.3277 29.64C14.7375 38.0205 19.9631 40.4374 25.9427 40.4374C31.737 40.4374 36.2796 37.3516 36.2796 31.7653C36.2796 21.8341 23.579 22.1004 23.579 17.1796C23.579 15.1845 25.0623 14.9185 25.943 14.9185C26.8701 14.9185 28.5386 15.0814 28.3995 18.8054Z" fill="white"/>
            </g>
        </g>
    </g>
    <defs>
        <clipPath id="clip0_2103_700">
            <rect width="50.0433" height="50" fill="white" transform="translate(0.0181885)"/>
        </clipPath>
    </defs>
</svg>
