<svg width="52" height="52" viewBox="0 0 52 52" fill="none" xmlns="http://www.w3.org/2000/svg">
    <g clip-path="url(#clip0_2103_876)">
        <path d="M0.549683 0.317324V51.2276H50.4026V0.317324H0.549683ZM27.6795 40.0228C27.6795 44.9775 24.8307 47.2389 20.68 47.2389C16.9299 47.2389 14.76 45.2616 13.6472 42.8638L17.4641 40.5114C18.1985 41.8411 18.8661 42.9661 20.4797 42.9661C22.0153 42.9661 22.9946 42.3524 22.9946 39.9546V23.6929H27.6795V40.0228ZM38.7628 47.2389C34.4118 47.2389 31.5964 45.1253 30.2277 42.3525L34.0446 40.1024C35.046 41.7728 36.3592 43.0115 38.6626 43.0115C40.5989 43.0115 41.8452 42.0229 41.8452 40.6478C41.8452 39.0114 40.5766 38.4319 38.4289 37.4659L37.2605 36.9545C33.8777 35.4887 31.6409 33.6363 31.6409 29.7385C31.6409 26.1475 34.3228 23.4201 38.4957 23.4201C41.4779 23.4201 43.6145 24.477 45.1501 27.2498L41.5002 29.6362C40.6991 28.1703 39.8311 27.5908 38.4845 27.5908C37.1159 27.5908 36.2479 28.4771 36.2479 29.6362C36.2479 31.068 37.1159 31.6476 39.13 32.5454L40.2984 33.0567C44.2822 34.7954 46.5189 36.5796 46.5189 40.5797C46.5189 44.8752 43.2028 47.2389 38.7628 47.2389Z" fill="#AA0000"/>
    </g>
    <defs>
        <clipPath id="clip0_2103_876">
            <rect width="51.0442" height="52" fill="white" transform="translate(0.220947)"/>
        </clipPath>
    </defs>
</svg>
