<svg width="78" height="41" viewBox="0 0 78 41" fill="none" xmlns="http://www.w3.org/2000/svg">
    <g clip-path="url(#clip0_2103_842)">
        <mask id="mask0_2103_842" style="mask-type:luminance" maskUnits="userSpaceOnUse" x="0" y="0" width="78" height="41">
            <path d="M78 0H0V41H78V0Z" fill="white"/>
        </mask>
        <g mask="url(#mask0_2103_842)">
            <path d="M0 37.2434H2.56966V26.9803L6.54773 35.9306C7.01695 37.0095 7.65987 37.3972 8.91974 37.3972C10.1796 37.3972 10.7974 37.0138 11.2673 35.9306L15.2458 26.9803V37.2473H17.8158V26.9973C17.8158 25.9973 17.4198 25.5137 16.6047 25.2641C14.6528 24.6475 13.343 25.1808 12.7504 26.5141L8.84662 35.3472L5.06543 26.5103C4.49719 25.1769 3.16304 24.6437 1.21113 25.2602C0.395332 25.5103 0 25.9939 0 26.9934V37.2434ZM19.9517 28.887H22.5206V34.5437C22.4966 34.8512 22.6181 35.5726 24.0258 35.5946C24.744 35.6061 29.5688 35.5946 29.6137 35.5946V28.8589H32.1884C32.1998 28.8589 32.1856 38.043 32.1861 38.0823C32.2002 40.3473 29.408 40.8394 28.1215 40.8775H20.0077V39.1281L28.136 39.1277C29.7897 38.9505 29.5947 38.1193 29.5947 37.8392V37.1571H24.1331C21.592 37.134 19.9742 36.0115 19.954 34.7206C19.9521 34.605 20.0088 28.9425 19.9525 28.8866L19.9517 28.887Z" fill="#AA0000"/>
            <path d="M34.1693 37.2434H41.5573C42.4218 37.2434 43.2623 37.0604 43.93 36.7433C45.0421 36.2269 45.5856 35.5268 45.5856 34.6101V32.7103C45.5856 31.9601 44.9678 31.2603 43.7575 30.7937C43.115 30.5432 42.3243 30.4102 41.5584 30.4102H38.4449C37.4074 30.4102 36.913 30.0935 36.7896 29.3937C36.7649 29.3105 36.7649 29.2396 36.7649 29.1602V27.9772C36.7649 27.9105 36.7649 27.8435 36.7896 27.7603C36.913 27.227 37.185 27.0767 38.099 26.9896C38.1733 26.9896 38.272 26.9727 38.3466 26.9727H45.685V25.2398H38.47C37.4322 25.2398 36.8887 25.3064 36.3943 25.4564C34.861 25.9399 34.1937 26.7106 34.1937 28.0439V29.5606C34.1937 30.7274 35.5039 31.7274 37.7022 31.9605C37.9497 31.9771 38.1966 31.9936 38.4433 31.9936H41.112C41.211 31.9936 41.31 31.9936 41.384 32.0105C42.199 32.0772 42.5456 32.2272 42.7924 32.5269C42.9447 32.681 42.9904 32.8275 42.9904 32.9894V34.506C42.9904 34.6894 42.867 34.923 42.6198 35.1226C42.3974 35.3229 42.0268 35.4559 41.5325 35.4894C41.4335 35.4894 41.3596 35.506 41.2609 35.506H34.1693V37.2392V37.2434ZM61.6156 34.227C61.6156 36.0104 62.925 37.0104 65.5689 37.2103C65.8155 37.2296 66.0627 37.2407 66.3101 37.2434H73.0066V35.5102H66.2605C64.7535 35.5102 64.1849 35.1268 64.1849 34.2101V25.2433H61.6152V34.2263L61.6156 34.227ZM47.2248 34.3172V28.1383C47.2248 26.5684 48.314 25.6163 50.4682 25.3157C50.6979 25.2825 50.9297 25.2658 51.1618 25.2656H56.0394C56.2797 25.2658 56.5197 25.2825 56.7577 25.3157C58.9119 25.6163 60.0012 26.5681 60.0012 28.1383V34.3172C60.0012 35.5907 59.5384 36.2724 58.4719 36.7167L61.0031 39.0287H58.0195L55.9716 37.1583L53.91 37.2905H51.1618C50.6914 37.2905 50.1963 37.2234 49.6513 37.0732C48.0136 36.6223 47.2248 35.7538 47.2248 34.3172ZM49.9986 34.163C49.9986 34.2467 50.0234 34.3299 50.0481 34.4305C50.2005 35.1488 50.865 35.5495 51.8763 35.5495H54.2109L52.0666 33.5908H55.0503L56.9166 35.299C57.2612 35.1133 57.4879 34.829 57.564 34.464C57.5888 34.3808 57.5888 34.2972 57.5888 34.2135V28.289C57.5888 28.2223 57.5888 28.1348 57.564 28.0551C57.4117 27.3872 56.7467 27.0031 55.7565 27.0031H51.8808C50.7382 27.0031 49.9994 27.504 49.9994 28.289V34.1677L49.9986 34.163Z" fill="#AA0000"/>
            <path d="M75.2666 22.3678C73.6876 22.3247 72.4803 22.4731 71.4494 22.9131C71.1557 23.0383 70.6884 23.0414 70.6402 23.4133C70.8016 23.584 70.8274 23.839 70.9549 24.0491C71.2011 24.4525 71.6176 24.9931 71.9879 25.276C72.3935 25.5854 72.8107 25.9168 73.2461 26.1854C74.0193 26.6624 74.8821 26.9349 75.6261 27.4123C76.065 27.6936 76.5011 28.0481 76.9291 28.3664C77.14 28.5236 77.2831 28.7679 77.5571 28.8662V28.8207C77.4127 28.6346 77.3754 28.3787 77.2431 28.1849L76.6591 27.5942C76.088 26.8235 75.3636 26.1542 74.5931 25.5942C73.9786 25.148 72.6031 24.5454 72.3474 23.8217L72.302 23.7762C72.7381 23.7262 73.2481 23.567 73.6503 23.4584C74.3259 23.2753 74.9295 23.3223 75.6268 23.1405L76.5703 22.8676V22.6857C76.2176 22.3196 75.9666 21.8353 75.582 21.5043C74.5768 20.6373 73.4787 19.7722 72.3488 19.0497C71.722 18.6489 70.9468 18.3892 70.2828 18.0497C70.059 17.9357 69.6662 17.8763 69.5191 17.686C69.1698 17.2359 68.9798 16.6649 68.7106 16.1446C68.1469 15.0464 67.5933 13.8465 67.0935 12.6908C66.7527 11.9028 66.5299 11.1256 66.1056 10.4185C64.0661 7.02596 61.8704 4.97828 58.4701 2.96605C57.7465 2.53832 56.8755 2.36877 55.9546 2.14798L54.4722 2.05703C54.1706 1.92987 53.8568 1.55609 53.5734 1.37498C52.4468 0.654401 49.5573 -0.911225 48.7228 1.14378C48.1961 2.44352 49.51 3.71167 49.9804 4.37061C50.3102 4.83301 50.733 5.35052 50.9683 5.87034C51.1234 6.21175 51.1504 6.55431 51.2829 6.91574C51.6094 7.80203 51.8935 8.77427 52.3158 9.59694C52.5291 10.0131 52.7645 10.4517 53.0345 10.8239C53.2002 11.0524 53.4839 11.153 53.5285 11.5059C53.2512 11.899 53.2352 12.5078 53.0791 13.0057C52.3772 15.2452 52.6418 18.0285 53.6629 19.6863C53.9764 20.1949 54.7141 21.2862 55.7291 20.8677C56.6165 20.5016 56.4146 19.3687 56.6725 18.3684C56.7296 18.1411 56.6946 17.9754 56.8073 17.8232V17.8686L57.6158 19.5044C58.2138 20.4793 59.2764 21.4985 60.176 22.1863C60.6426 22.5428 61.0139 23.1593 61.6134 23.3678V23.3223H61.5684C61.4515 23.1373 61.2687 23.0615 61.119 22.9139C60.7675 22.5651 60.3764 22.1316 60.0857 21.7324C59.2669 20.608 58.544 19.378 57.8851 18.0967C57.5705 17.4852 57.2967 16.8105 57.032 16.1882C56.9299 15.9481 56.9311 15.5855 56.7178 15.461C56.4272 15.9173 55.9991 16.2857 55.7744 16.8244C55.4149 17.6852 55.3684 18.7349 55.2355 19.8238C55.1567 19.8523 55.1917 19.8327 55.1456 19.8693C54.5203 19.7167 54.3001 19.0651 54.0678 18.506C53.4797 17.0918 53.3708 14.816 53.8881 13.1891C54.0213 12.7683 54.6269 11.4419 54.382 11.0531C54.2651 10.6651 53.8792 10.4366 53.6634 10.1437C53.3967 9.77768 53.1294 9.29443 52.9447 8.87137C52.4632 7.76929 52.2385 6.53235 51.732 5.41757C51.4897 4.88503 51.0807 4.34633 50.744 3.87621C50.3715 3.35215 49.9545 2.96528 49.6662 2.33486C49.5634 2.10944 49.4239 1.74915 49.5763 1.51679C49.5909 1.45003 49.624 1.38887 49.6718 1.34053C49.7195 1.29219 49.78 1.25869 49.846 1.24397C50.1065 1.04089 50.8324 1.31141 51.1036 1.42585C51.8234 1.72872 52.4251 2.01696 53.0353 2.4258C53.3286 2.61847 53.6245 3.00227 53.9783 3.10785H54.382C55.0142 3.25505 55.7226 3.15409 56.313 3.3352C57.3573 3.65619 58.2927 4.15597 59.1427 4.69852C61.7318 6.3524 63.8483 8.70683 65.2963 11.519C65.5294 11.971 65.6299 12.403 65.8352 12.8823C66.2492 13.8457 66.7706 14.8449 67.1826 15.7905C67.594 16.7346 67.9936 17.6864 68.5749 18.4717C68.8808 18.884 70.0603 19.1059 70.5961 19.3348C70.9719 19.4955 71.5878 19.6631 71.9438 19.8801C72.6235 20.2951 73.2827 20.7895 73.9203 21.2442C74.2391 21.4716 75.2192 21.9698 75.268 22.3802L75.2666 22.3678Z" fill="#AA0000"/>
            <path fill-rule="evenodd" clip-rule="evenodd" d="M55.1903 5.0537C54.8608 5.04754 54.6281 5.08992 54.3817 5.14464V5.19011H54.4267C54.5836 5.51688 54.8608 5.72689 55.0551 6.00818L55.5045 6.96228L55.5494 6.91684C55.8275 6.71836 55.9551 6.40123 55.9532 5.91686C55.8415 5.79817 55.8252 5.64943 55.7285 5.50763C55.6001 5.31881 55.3476 5.21169 55.1895 5.05293L55.1903 5.0537Z" fill="#AA0000"/>
            <path fill-rule="evenodd" clip-rule="evenodd" d="M74.2126 35.461C74.2126 36.6054 75.1059 37.3768 76.1057 37.3768C77.1054 37.3768 77.9994 36.6054 77.9994 35.461C77.9994 34.3165 77.1054 33.545 76.1057 33.545C75.1059 33.545 74.2126 34.3165 74.2126 35.461ZM77.5755 35.461C77.5755 36.3295 76.9189 36.9785 76.105 36.9785C75.2823 36.9785 74.6352 36.3295 74.6352 35.461C74.6352 34.5924 75.2816 33.9435 76.105 33.9435C76.9182 33.9435 77.5755 34.5924 77.5755 35.461ZM76.6157 36.5546H77.0396L76.4183 35.5943C76.7521 35.5585 77.0037 35.3947 77.0037 34.9962C77.0037 34.5516 76.7263 34.3681 76.1911 34.3681H75.3474V36.5549H75.7116V35.6097H76.0494L76.615 36.5549L76.6157 36.5546ZM75.7116 35.3022V34.6741H76.1301C76.3471 34.6741 76.6103 34.715 76.6103 34.9708C76.6103 35.2772 76.3729 35.303 76.0996 35.303H75.7116V35.3022Z" fill="#AA0000"/>
        </g>
    </g>
    <defs>
        <clipPath id="clip0_2103_842">
            <rect width="78" height="41" fill="white"/>
        </clipPath>
    </defs>
</svg>
