<svg width="89" height="73" viewBox="0 0 89 73" fill="none" xmlns="http://www.w3.org/2000/svg">
    <g clip-path="url(#clip0_2103_855)">
        <mask id="mask0_2103_855" style="mask-type:luminance" maskUnits="userSpaceOnUse" x="0" y="0" width="87" height="73">
            <path d="M86.9485 0.893599H0.685547V72.0065H86.9485V0.893599Z" fill="white"/>
        </mask>
        <g mask="url(#mask0_2103_855)">
            <path d="M43.8169 15.4078C66.9193 15.4078 84.6841 25.4359 84.6841 36.45C84.6841 47.4642 66.9058 57.4921 43.8169 57.4921C20.7147 57.4921 2.94995 47.4642 2.94995 36.45C2.94995 25.4359 20.7283 15.4078 43.8169 15.4078ZM43.8169 13.0744C20.0004 13.0744 0.685547 23.5331 0.685547 36.45C0.685547 49.3671 20.0004 59.8256 43.8169 59.8256C67.6336 59.8256 86.9484 49.3671 86.9484 36.45C86.9484 23.5331 67.6336 13.0744 43.8169 13.0744ZM30.0959 34.5749C29.031 40.2 25.2705 39.6167 20.6474 39.6167L22.4938 29.8109C27.6158 29.8109 31.0933 29.2415 30.0959 34.5749ZM13.8137 49.5476H18.7603L19.9329 43.3251C25.4726 43.3251 28.9097 43.7418 32.0906 40.6724C35.6086 37.339 36.5251 31.4082 34.0181 28.436C32.7107 26.8804 30.608 26.1164 27.7506 26.1164H18.2213L13.8137 49.5476ZM38.8434 19.8802H43.763L42.5904 26.1025C46.8362 26.1025 50.772 25.7831 52.6725 27.5887C54.6672 29.4776 53.7104 31.8944 51.5537 43.2974H46.5667C48.6423 32.2694 49.0332 31.3526 48.2783 30.5193C47.5507 29.7137 45.8927 29.8803 41.8896 29.8803L39.3555 43.2974H34.4359L38.8434 19.8802ZM68.7524 34.5749C67.6741 40.2834 63.8058 39.6167 59.3039 39.6167L61.1505 29.8109C66.2993 29.8109 69.7497 29.2415 68.7524 34.5749ZM52.4702 49.5476H57.4303L58.603 43.3251C64.4257 43.3251 67.6472 43.6723 70.7607 40.6724C74.2786 37.339 75.1952 31.4082 72.6881 28.436C71.3807 26.8804 69.278 26.1164 66.4206 26.1164H56.8913L52.4702 49.5476Z" fill="#AA0000"/>
        </g>
    </g>
    <defs>
        <clipPath id="clip0_2103_855">
            <rect width="88.0763" height="73" fill="white" transform="translate(0.00341797)"/>
        </clipPath>
    </defs>
</svg>
