<svg width="51" height="52" viewBox="0 0 51 52" fill="none" xmlns="http://www.w3.org/2000/svg">
    <mask id="mask0_2103_865" style="mask-type:luminance" maskUnits="userSpaceOnUse" x="1" y="0" width="50" height="52">
        <path d="M50.0003 0.779041H1.37634V51.3252H50.0003V0.779041Z" fill="white"/>
    </mask>
    <g mask="url(#mask0_2103_865)">
        <path d="M45.2519 0.779041H6.12478C3.5023 0.779041 1.37634 2.98903 1.37634 5.71519V46.389C1.37634 49.1152 3.5023 51.3252 6.12478 51.3252H45.2519C47.8744 51.3252 50.0004 49.1152 50.0004 46.389V5.71519C50.0004 2.98903 47.8744 0.779041 45.2519 0.779041Z" fill="#AA0000"/>
        <path d="M45.2519 0.779041H6.12478C3.5023 0.779041 1.37634 2.98903 1.37634 5.71519V46.389C1.37634 49.1152 3.5023 51.3252 6.12478 51.3252H45.2519C47.8744 51.3252 50.0004 49.1152 50.0004 46.389V5.71519C50.0004 2.98903 47.8744 0.779041 45.2519 0.779041Z" fill="#AA0000"/>
        <path fill-rule="evenodd" clip-rule="evenodd" d="M31.4757 41.0012V45.9433C32.2485 46.3551 33.1626 46.664 34.2179 46.8699C35.2731 47.0758 36.3854 47.1788 37.5546 47.1788C38.6942 47.1788 39.7765 47.0656 40.8022 46.8389C41.8277 46.6126 42.727 46.2393 43.4999 45.7192C44.2727 45.1994 44.8845 44.5197 45.3354 43.6806C45.7863 42.8415 46.0117 41.8043 46.0117 40.5687C46.0117 39.6729 45.8829 38.8879 45.6253 38.2135C45.3676 37.5392 44.9961 36.9394 44.5105 36.4143C44.025 35.8892 43.4428 35.418 42.7641 35.0011C42.0853 34.584 41.3199 34.1902 40.4677 33.8196C39.8435 33.5519 39.2837 33.292 38.7883 33.0397C38.2928 32.7873 37.8717 32.53 37.5248 32.2675C37.1781 32.0049 36.9105 31.7269 36.7224 31.4335C36.5341 31.14 36.4398 30.8079 36.4398 30.4373C36.4398 30.0976 36.5241 29.7913 36.6926 29.5183C36.861 29.2455 37.0989 29.0113 37.406 28.8156C37.7132 28.6201 38.0897 28.4682 38.5356 28.3601C38.9816 28.252 39.4769 28.1979 40.0219 28.1979C40.4182 28.1979 40.8369 28.2289 41.2777 28.2905C41.7187 28.3523 42.1621 28.4476 42.608 28.5763C43.054 28.705 43.4874 28.8671 43.9086 29.0628C44.3297 29.2585 44.7186 29.4848 45.0753 29.7423V25.1245C44.3521 24.8363 43.5617 24.6226 42.7047 24.4835C41.8476 24.3446 40.864 24.2751 39.7544 24.2751C38.6247 24.2751 37.5546 24.4013 36.544 24.6534C35.5333 24.9057 34.644 25.2996 33.876 25.8349C33.108 26.3704 32.5012 27.0525 32.0553 27.8813C31.6095 28.7102 31.3865 29.7011 31.3865 30.8543C31.3865 32.3266 31.7952 33.5828 32.6127 34.6227C33.4301 35.6626 34.6712 36.5429 36.3358 37.2637C36.9898 37.5417 37.5993 37.8144 38.1641 38.0821C38.7288 38.3499 39.2169 38.6279 39.628 38.9162C40.0392 39.2045 40.3637 39.5186 40.6015 39.8582C40.8394 40.1981 40.9583 40.5841 40.9583 41.0166C40.9583 41.3358 40.8839 41.6318 40.7353 41.9046C40.5866 42.1774 40.3612 42.4142 40.059 42.6151C39.7569 42.8158 39.3802 42.9728 38.9295 43.086C38.4785 43.1994 37.951 43.2559 37.3466 43.2559C36.316 43.2559 35.2955 43.0681 34.2848 42.6922C33.2741 42.3165 32.3377 41.7527 31.4757 41.0012ZM23.4832 28.8244H29.5821V24.7687H12.5826V28.8244H18.6517V46.8826H23.4832V28.8244Z" fill="white"/>
    </g>
</svg>
